<?xml version="1.0" encoding="utf-8"?>
<svg xmlns="http://www.w3.org/2000/svg" xmlns:xlink="http://www.w3.org/1999/xlink" width="1000" height="400" viewBox="0 0 4000 1600">
<defs>
  <clipPath id="clip330">
    <rect x="0" y="0" width="4000" height="1600"/>
  </clipPath>
</defs>
<path clip-path="url(#clip330)" d="M0 1600 L4000 1600 L4000 -8.88178e-14 L0 -8.88178e-14  Z" fill="#ffffff" fill-rule="evenodd" fill-opacity="1"/>
<defs>
  <clipPath id="clip331">
    <rect x="800" y="0" width="2801" height="1600"/>
  </clipPath>
</defs>
<path clip-path="url(#clip330)" d="M302.119 1228.17 L1795.94 1228.17 L1795.94 319.753 L302.119 319.753  Z" fill="#ffffff" fill-rule="evenodd" fill-opacity="1"/>
<defs>
  <clipPath id="clip332">
    <rect x="302" y="319" width="1495" height="909"/>
  </clipPath>
</defs>
<polyline clip-path="url(#clip332)" style="stroke:#000000; stroke-linecap:round; stroke-linejoin:round; stroke-width:2; stroke-opacity:0.1; fill:none" points="696.714,1228.17 696.714,319.753 "/>
<polyline clip-path="url(#clip332)" style="stroke:#000000; stroke-linecap:round; stroke-linejoin:round; stroke-width:2; stroke-opacity:0.1; fill:none" points="1401.35,1228.17 1401.35,319.753 "/>
<polyline clip-path="url(#clip332)" style="stroke:#000000; stroke-linecap:round; stroke-linejoin:round; stroke-width:2; stroke-opacity:0.1; fill:none" points="302.119,1202.97 1795.94,1202.97 "/>
<polyline clip-path="url(#clip332)" style="stroke:#000000; stroke-linecap:round; stroke-linejoin:round; stroke-width:2; stroke-opacity:0.1; fill:none" points="302.119,971.415 1795.94,971.415 "/>
<polyline clip-path="url(#clip332)" style="stroke:#000000; stroke-linecap:round; stroke-linejoin:round; stroke-width:2; stroke-opacity:0.1; fill:none" points="302.119,739.86 1795.94,739.86 "/>
<polyline clip-path="url(#clip332)" style="stroke:#000000; stroke-linecap:round; stroke-linejoin:round; stroke-width:2; stroke-opacity:0.1; fill:none" points="302.119,508.305 1795.94,508.305 "/>
<polyline clip-path="url(#clip330)" style="stroke:#000000; stroke-linecap:round; stroke-linejoin:round; stroke-width:4; stroke-opacity:1; fill:none" points="302.119,1228.17 1795.94,1228.17 "/>
<polyline clip-path="url(#clip330)" style="stroke:#000000; stroke-linecap:round; stroke-linejoin:round; stroke-width:4; stroke-opacity:1; fill:none" points="696.714,1228.17 696.714,1209.27 "/>
<polyline clip-path="url(#clip330)" style="stroke:#000000; stroke-linecap:round; stroke-linejoin:round; stroke-width:4; stroke-opacity:1; fill:none" points="1401.35,1228.17 1401.35,1209.27 "/>
<path clip-path="url(#clip330)" d="M661.697 1315.09 L669.335 1315.09 L669.335 1288.73 L661.025 1290.4 L661.025 1286.14 L669.289 1284.47 L673.965 1284.47 L673.965 1315.09 L681.604 1315.09 L681.604 1319.03 L661.697 1319.03 L661.697 1315.09 Z" fill="#000000" fill-rule="nonzero" fill-opacity="1" /><path clip-path="url(#clip330)" d="M701.048 1287.55 Q697.437 1287.55 695.608 1291.11 Q693.803 1294.65 693.803 1301.78 Q693.803 1308.89 695.608 1312.46 Q697.437 1316 701.048 1316 Q704.682 1316 706.488 1312.46 Q708.317 1308.89 708.317 1301.78 Q708.317 1294.65 706.488 1291.11 Q704.682 1287.55 701.048 1287.55 M701.048 1283.84 Q706.858 1283.84 709.914 1288.45 Q712.993 1293.03 712.993 1301.78 Q712.993 1310.51 709.914 1315.12 Q706.858 1319.7 701.048 1319.7 Q695.238 1319.7 692.159 1315.12 Q689.104 1310.51 689.104 1301.78 Q689.104 1293.03 692.159 1288.45 Q695.238 1283.84 701.048 1283.84 Z" fill="#000000" fill-rule="nonzero" fill-opacity="1" /><path clip-path="url(#clip330)" d="M722.697 1266.04 Q719.763 1266.04 718.278 1268.94 Q716.811 1271.81 716.811 1277.61 Q716.811 1283.38 718.278 1286.28 Q719.763 1289.16 722.697 1289.16 Q725.65 1289.16 727.117 1286.28 Q728.603 1283.38 728.603 1277.61 Q728.603 1271.81 727.117 1268.94 Q725.65 1266.04 722.697 1266.04 M722.697 1263.03 Q727.418 1263.03 729.901 1266.77 Q732.402 1270.5 732.402 1277.61 Q732.402 1284.7 729.901 1288.44 Q727.418 1292.16 722.697 1292.16 Q717.977 1292.16 715.475 1288.44 Q712.993 1284.7 712.993 1277.61 Q712.993 1270.5 715.475 1266.77 Q717.977 1263.03 722.697 1263.03 Z" fill="#000000" fill-rule="nonzero" fill-opacity="1" /><path clip-path="url(#clip330)" d="M1367.12 1315.09 L1374.76 1315.09 L1374.76 1288.73 L1366.45 1290.4 L1366.45 1286.14 L1374.71 1284.47 L1379.39 1284.47 L1379.39 1315.09 L1387.03 1315.09 L1387.03 1319.03 L1367.12 1319.03 L1367.12 1315.09 Z" fill="#000000" fill-rule="nonzero" fill-opacity="1" /><path clip-path="url(#clip330)" d="M1406.47 1287.55 Q1402.86 1287.55 1401.03 1291.11 Q1399.23 1294.65 1399.23 1301.78 Q1399.23 1308.89 1401.03 1312.46 Q1402.86 1316 1406.47 1316 Q1410.11 1316 1411.91 1312.46 Q1413.74 1308.89 1413.74 1301.78 Q1413.74 1294.65 1411.91 1291.11 Q1410.11 1287.55 1406.47 1287.55 M1406.47 1283.84 Q1412.28 1283.84 1415.34 1288.45 Q1418.42 1293.03 1418.42 1301.78 Q1418.42 1310.51 1415.34 1315.12 Q1412.28 1319.7 1406.47 1319.7 Q1400.66 1319.7 1397.58 1315.12 Q1394.53 1310.51 1394.53 1301.78 Q1394.53 1293.03 1397.58 1288.45 Q1400.66 1283.84 1406.47 1283.84 Z" fill="#000000" fill-rule="nonzero" fill-opacity="1" /><path clip-path="url(#clip330)" d="M1422.99 1288.42 L1436.25 1288.42 L1436.25 1291.62 L1418.42 1291.62 L1418.42 1288.42 Q1420.58 1286.18 1424.3 1282.42 Q1428.05 1278.64 1429.01 1277.55 Q1430.83 1275.5 1431.54 1274.09 Q1432.28 1272.66 1432.28 1271.29 Q1432.28 1269.05 1430.7 1267.64 Q1429.14 1266.23 1426.62 1266.23 Q1424.83 1266.23 1422.84 1266.85 Q1420.86 1267.47 1418.6 1268.73 L1418.6 1264.89 Q1420.9 1263.97 1422.89 1263.5 Q1424.89 1263.03 1426.54 1263.03 Q1430.9 1263.03 1433.5 1265.21 Q1436.1 1267.39 1436.1 1271.04 Q1436.1 1272.77 1435.44 1274.33 Q1434.8 1275.88 1433.09 1277.98 Q1432.62 1278.53 1430.1 1281.14 Q1427.58 1283.74 1422.99 1288.42 Z" fill="#000000" fill-rule="nonzero" fill-opacity="1" /><path clip-path="url(#clip330)" d="M768.844 1367.94 L796.153 1367.94 L796.153 1373.35 L775.274 1373.35 L775.274 1387.35 L794.116 1387.35 L794.116 1392.76 L775.274 1392.76 L775.274 1415.46 L768.844 1415.46 L768.844 1367.94 Z" fill="#000000" fill-rule="nonzero" fill-opacity="1" /><path clip-path="url(#clip330)" d="M821.998 1385.28 Q821.011 1384.71 819.833 1384.46 Q818.688 1384.17 817.287 1384.17 Q812.322 1384.17 809.648 1387.42 Q807.007 1390.63 807.007 1396.68 L807.007 1415.46 L801.118 1415.46 L801.118 1379.81 L807.007 1379.81 L807.007 1385.35 Q808.853 1382.1 811.813 1380.54 Q814.773 1378.95 819.006 1378.95 Q819.611 1378.95 820.343 1379.05 Q821.075 1379.11 821.966 1379.27 L821.998 1385.28 Z" fill="#000000" fill-rule="nonzero" fill-opacity="1" /><path clip-path="url(#clip330)" d="M857.2 1396.17 L857.2 1399.03 L830.273 1399.03 Q830.655 1405.08 833.902 1408.27 Q837.18 1411.42 843.005 1411.42 Q846.378 1411.42 849.529 1410.59 Q852.712 1409.76 855.832 1408.11 L855.832 1413.64 Q852.681 1414.98 849.37 1415.68 Q846.06 1416.38 842.655 1416.38 Q834.124 1416.38 829.127 1411.42 Q824.162 1406.45 824.162 1397.98 Q824.162 1389.23 828.873 1384.11 Q833.615 1378.95 841.636 1378.95 Q848.829 1378.95 852.999 1383.6 Q857.2 1388.21 857.2 1396.17 M851.344 1394.45 Q851.28 1389.65 848.638 1386.78 Q846.028 1383.92 841.7 1383.92 Q836.798 1383.92 833.838 1386.69 Q830.91 1389.45 830.464 1394.48 L851.344 1394.45 Z" fill="#000000" fill-rule="nonzero" fill-opacity="1" /><path clip-path="url(#clip330)" d="M870.314 1397.67 Q870.314 1404.13 872.955 1407.82 Q875.629 1411.48 880.276 1411.48 Q884.923 1411.48 887.596 1407.82 Q890.27 1404.13 890.27 1397.67 Q890.27 1391.2 887.596 1387.54 Q884.923 1383.85 880.276 1383.85 Q875.629 1383.85 872.955 1387.54 Q870.314 1391.2 870.314 1397.67 M890.27 1410.11 Q888.424 1413.29 885.591 1414.85 Q882.79 1416.38 878.844 1416.38 Q872.382 1416.38 868.308 1411.23 Q864.266 1406.07 864.266 1397.67 Q864.266 1389.26 868.308 1384.11 Q872.382 1378.95 878.844 1378.95 Q882.79 1378.95 885.591 1380.51 Q888.424 1382.04 890.27 1385.22 L890.27 1379.81 L896.126 1379.81 L896.126 1429.02 L890.27 1429.02 L890.27 1410.11 Z" fill="#000000" fill-rule="nonzero" fill-opacity="1" /><path clip-path="url(#clip330)" d="M907.585 1401.39 L907.585 1379.81 L913.441 1379.81 L913.441 1401.17 Q913.441 1406.23 915.415 1408.77 Q917.388 1411.29 921.335 1411.29 Q926.077 1411.29 928.814 1408.27 Q931.583 1405.24 931.583 1400.02 L931.583 1379.81 L937.44 1379.81 L937.44 1415.46 L931.583 1415.46 L931.583 1409.98 Q929.451 1413.23 926.618 1414.82 Q923.817 1416.38 920.093 1416.38 Q913.95 1416.38 910.768 1412.56 Q907.585 1408.74 907.585 1401.39 M922.321 1378.95 L922.321 1378.95 Z" fill="#000000" fill-rule="nonzero" fill-opacity="1" /><path clip-path="url(#clip330)" d="M979.995 1396.17 L979.995 1399.03 L953.068 1399.03 Q953.45 1405.08 956.696 1408.27 Q959.975 1411.42 965.799 1411.42 Q969.173 1411.42 972.324 1410.59 Q975.507 1409.76 978.626 1408.11 L978.626 1413.64 Q975.475 1414.98 972.165 1415.68 Q968.855 1416.38 965.449 1416.38 Q956.919 1416.38 951.922 1411.42 Q946.957 1406.45 946.957 1397.98 Q946.957 1389.23 951.667 1384.11 Q956.41 1378.95 964.43 1378.95 Q971.624 1378.95 975.793 1383.6 Q979.995 1388.21 979.995 1396.17 M974.138 1394.45 Q974.075 1389.65 971.433 1386.78 Q968.823 1383.92 964.494 1383.92 Q959.593 1383.92 956.633 1386.69 Q953.704 1389.45 953.259 1394.48 L974.138 1394.45 Z" fill="#000000" fill-rule="nonzero" fill-opacity="1" /><path clip-path="url(#clip330)" d="M1019.24 1393.94 L1019.24 1415.46 L1013.38 1415.46 L1013.38 1394.13 Q1013.38 1389.07 1011.41 1386.56 Q1009.44 1384.04 1005.49 1384.04 Q1000.75 1384.04 998.01 1387.07 Q995.272 1390.09 995.272 1395.31 L995.272 1415.46 L989.384 1415.46 L989.384 1379.81 L995.272 1379.81 L995.272 1385.35 Q997.373 1382.13 1000.21 1380.54 Q1003.07 1378.95 1006.79 1378.95 Q1012.94 1378.95 1016.09 1382.77 Q1019.24 1386.56 1019.24 1393.94 Z" fill="#000000" fill-rule="nonzero" fill-opacity="1" /><path clip-path="url(#clip330)" d="M1056.57 1381.18 L1056.57 1386.65 Q1054.09 1385.28 1051.58 1384.62 Q1049.09 1383.92 1046.55 1383.92 Q1040.85 1383.92 1037.7 1387.54 Q1034.55 1391.14 1034.55 1397.67 Q1034.55 1404.19 1037.7 1407.82 Q1040.85 1411.42 1046.55 1411.42 Q1049.09 1411.42 1051.58 1410.75 Q1054.09 1410.05 1056.57 1408.68 L1056.57 1414.09 Q1054.12 1415.24 1051.48 1415.81 Q1048.87 1416.38 1045.91 1416.38 Q1037.86 1416.38 1033.12 1411.32 Q1028.37 1406.26 1028.37 1397.67 Q1028.37 1388.95 1033.15 1383.95 Q1037.95 1378.95 1046.29 1378.95 Q1049 1378.95 1051.58 1379.52 Q1054.16 1380.06 1056.57 1381.18 Z" fill="#000000" fill-rule="nonzero" fill-opacity="1" /><path clip-path="url(#clip330)" d="M1081.59 1418.77 Q1079.11 1425.13 1076.75 1427.08 Q1074.4 1429.02 1070.45 1429.02 L1065.77 1429.02 L1065.77 1424.12 L1069.21 1424.12 Q1071.63 1424.12 1072.97 1422.97 Q1074.3 1421.82 1075.93 1417.56 L1076.98 1414.89 L1062.56 1379.81 L1068.76 1379.81 L1079.9 1407.69 L1091.04 1379.81 L1097.25 1379.81 L1081.59 1418.77 Z" fill="#000000" fill-rule="nonzero" fill-opacity="1" /><path clip-path="url(#clip330)" d="M1140.12 1366 Q1135.86 1373.32 1133.79 1380.48 Q1131.72 1387.64 1131.72 1394.99 Q1131.72 1402.34 1133.79 1409.57 Q1135.89 1416.76 1140.12 1424.05 L1135.03 1424.05 Q1130.26 1416.57 1127.87 1409.35 Q1125.51 1402.12 1125.51 1394.99 Q1125.51 1387.89 1127.87 1380.7 Q1130.23 1373.51 1135.03 1366 L1140.12 1366 Z" fill="#000000" fill-rule="nonzero" fill-opacity="1" /><path clip-path="url(#clip330)" d="M1172.14 1385.28 Q1171.16 1384.71 1169.98 1384.46 Q1168.83 1384.17 1167.43 1384.17 Q1162.47 1384.17 1159.79 1387.42 Q1157.15 1390.63 1157.15 1396.68 L1157.15 1415.46 L1151.26 1415.46 L1151.26 1379.81 L1157.15 1379.81 L1157.15 1385.35 Q1159 1382.1 1161.96 1380.54 Q1164.92 1378.95 1169.15 1378.95 Q1169.76 1378.95 1170.49 1379.05 Q1171.22 1379.11 1172.11 1379.27 L1172.14 1385.28 Z" fill="#000000" fill-rule="nonzero" fill-opacity="1" /><path clip-path="url(#clip330)" d="M1194.49 1397.54 Q1187.39 1397.54 1184.65 1399.16 Q1181.91 1400.79 1181.91 1404.7 Q1181.91 1407.82 1183.95 1409.67 Q1186.02 1411.48 1189.55 1411.48 Q1194.42 1411.48 1197.35 1408.04 Q1200.31 1404.57 1200.31 1398.84 L1200.31 1397.54 L1194.49 1397.54 M1206.17 1395.12 L1206.17 1415.46 L1200.31 1415.46 L1200.31 1410.05 Q1198.31 1413.29 1195.31 1414.85 Q1192.32 1416.38 1187.99 1416.38 Q1182.52 1416.38 1179.27 1413.33 Q1176.06 1410.24 1176.06 1405.08 Q1176.06 1399.07 1180.07 1396.01 Q1184.11 1392.96 1192.1 1392.96 L1200.31 1392.96 L1200.31 1392.38 Q1200.31 1388.34 1197.64 1386.14 Q1195 1383.92 1190.19 1383.92 Q1187.13 1383.92 1184.24 1384.65 Q1181.34 1385.38 1178.67 1386.84 L1178.67 1381.43 Q1181.88 1380.19 1184.91 1379.59 Q1187.93 1378.95 1190.8 1378.95 Q1198.53 1378.95 1202.35 1382.96 Q1206.17 1386.97 1206.17 1395.12 Z" fill="#000000" fill-rule="nonzero" fill-opacity="1" /><path clip-path="url(#clip330)" d="M1241.69 1385.22 L1241.69 1365.93 L1247.55 1365.93 L1247.55 1415.46 L1241.69 1415.46 L1241.69 1410.11 Q1239.84 1413.29 1237.01 1414.85 Q1234.21 1416.38 1230.26 1416.38 Q1223.8 1416.38 1219.73 1411.23 Q1215.68 1406.07 1215.68 1397.67 Q1215.68 1389.26 1219.73 1384.11 Q1223.8 1378.95 1230.26 1378.95 Q1234.21 1378.95 1237.01 1380.51 Q1239.84 1382.04 1241.69 1385.22 M1221.73 1397.67 Q1221.73 1404.13 1224.37 1407.82 Q1227.05 1411.48 1231.69 1411.48 Q1236.34 1411.48 1239.02 1407.82 Q1241.69 1404.13 1241.69 1397.67 Q1241.69 1391.2 1239.02 1387.54 Q1236.34 1383.85 1231.69 1383.85 Q1227.05 1383.85 1224.37 1387.54 Q1221.73 1391.2 1221.73 1397.67 Z" fill="#000000" fill-rule="nonzero" fill-opacity="1" /><path clip-path="url(#clip330)" d="M1270.02 1367.94 L1275.43 1367.94 L1258.88 1421.51 L1253.47 1421.51 L1270.02 1367.94 Z" fill="#000000" fill-rule="nonzero" fill-opacity="1" /><path clip-path="url(#clip330)" d="M1304.3 1380.86 L1304.3 1386.4 Q1301.81 1385.13 1299.14 1384.49 Q1296.47 1383.85 1293.6 1383.85 Q1289.24 1383.85 1287.04 1385.19 Q1284.88 1386.53 1284.88 1389.2 Q1284.88 1391.24 1286.44 1392.41 Q1288 1393.56 1292.71 1394.61 L1294.72 1395.06 Q1300.95 1396.39 1303.56 1398.84 Q1306.21 1401.26 1306.21 1405.62 Q1306.21 1410.59 1302.26 1413.48 Q1298.34 1416.38 1291.47 1416.38 Q1288.6 1416.38 1285.48 1415.81 Q1282.4 1415.27 1278.96 1414.15 L1278.96 1408.11 Q1282.21 1409.79 1285.36 1410.65 Q1288.51 1411.48 1291.6 1411.48 Q1295.73 1411.48 1297.96 1410.08 Q1300.19 1408.65 1300.19 1406.07 Q1300.19 1403.68 1298.57 1402.41 Q1296.98 1401.14 1291.53 1399.96 L1289.5 1399.48 Q1284.05 1398.33 1281.63 1395.98 Q1279.21 1393.59 1279.21 1389.45 Q1279.21 1384.43 1282.78 1381.69 Q1286.34 1378.95 1292.9 1378.95 Q1296.15 1378.95 1299.01 1379.43 Q1301.88 1379.91 1304.3 1380.86 Z" fill="#000000" fill-rule="nonzero" fill-opacity="1" /><path clip-path="url(#clip330)" d="M1314.61 1366 L1319.7 1366 Q1324.47 1373.51 1326.83 1380.7 Q1329.22 1387.89 1329.22 1394.99 Q1329.22 1402.12 1326.83 1409.35 Q1324.47 1416.57 1319.7 1424.05 L1314.61 1424.05 Q1318.84 1416.76 1320.91 1409.57 Q1323.01 1402.34 1323.01 1394.99 Q1323.01 1387.64 1320.91 1380.48 Q1318.84 1373.32 1314.61 1366 Z" fill="#000000" fill-rule="nonzero" fill-opacity="1" /><polyline clip-path="url(#clip330)" style="stroke:#000000; stroke-linecap:round; stroke-linejoin:round; stroke-width:4; stroke-opacity:1; fill:none" points="302.119,1228.17 302.119,319.753 "/>
<polyline clip-path="url(#clip330)" style="stroke:#000000; stroke-linecap:round; stroke-linejoin:round; stroke-width:4; stroke-opacity:1; fill:none" points="302.119,1202.97 321.016,1202.97 "/>
<polyline clip-path="url(#clip330)" style="stroke:#000000; stroke-linecap:round; stroke-linejoin:round; stroke-width:4; stroke-opacity:1; fill:none" points="302.119,971.415 321.016,971.415 "/>
<polyline clip-path="url(#clip330)" style="stroke:#000000; stroke-linecap:round; stroke-linejoin:round; stroke-width:4; stroke-opacity:1; fill:none" points="302.119,739.86 321.016,739.86 "/>
<polyline clip-path="url(#clip330)" style="stroke:#000000; stroke-linecap:round; stroke-linejoin:round; stroke-width:4; stroke-opacity:1; fill:none" points="302.119,508.305 321.016,508.305 "/>
<path clip-path="url(#clip330)" d="M150.244 1203.42 L179.92 1203.42 L179.92 1207.36 L150.244 1207.36 L150.244 1203.42 Z" fill="#000000" fill-rule="nonzero" fill-opacity="1" /><path clip-path="url(#clip330)" d="M202.86 1189.76 L191.054 1208.21 L202.86 1208.21 L202.86 1189.76 M201.633 1185.69 L207.512 1185.69 L207.512 1208.21 L212.443 1208.21 L212.443 1212.1 L207.512 1212.1 L207.512 1220.25 L202.86 1220.25 L202.86 1212.1 L187.258 1212.1 L187.258 1207.59 L201.633 1185.69 Z" fill="#000000" fill-rule="nonzero" fill-opacity="1" /><path clip-path="url(#clip330)" d="M230.174 1188.77 Q226.563 1188.77 224.735 1192.33 Q222.929 1195.87 222.929 1203 Q222.929 1210.11 224.735 1213.68 Q226.563 1217.22 230.174 1217.22 Q233.809 1217.22 235.614 1213.68 Q237.443 1210.11 237.443 1203 Q237.443 1195.87 235.614 1192.33 Q233.809 1188.77 230.174 1188.77 M230.174 1185.06 Q235.985 1185.06 239.04 1189.67 Q242.119 1194.25 242.119 1203 Q242.119 1211.73 239.04 1216.34 Q235.985 1220.92 230.174 1220.92 Q224.364 1220.92 221.286 1216.34 Q218.23 1211.73 218.23 1203 Q218.23 1194.25 221.286 1189.67 Q224.364 1185.06 230.174 1185.06 Z" fill="#000000" fill-rule="nonzero" fill-opacity="1" /><path clip-path="url(#clip330)" d="M150.244 971.866 L179.92 971.866 L179.92 975.801 L150.244 975.801 L150.244 971.866 Z" fill="#000000" fill-rule="nonzero" fill-opacity="1" /><path clip-path="url(#clip330)" d="M194.04 984.76 L210.36 984.76 L210.36 988.695 L188.415 988.695 L188.415 984.76 Q191.077 982.005 195.661 977.376 Q200.267 972.723 201.448 971.38 Q203.693 968.857 204.573 967.121 Q205.475 965.362 205.475 963.672 Q205.475 960.917 203.531 959.181 Q201.61 957.445 198.508 957.445 Q196.309 957.445 193.855 958.209 Q191.425 958.973 188.647 960.524 L188.647 955.802 Q191.471 954.667 193.925 954.089 Q196.378 953.51 198.415 953.51 Q203.786 953.51 206.98 956.195 Q210.175 958.88 210.175 963.371 Q210.175 965.501 209.364 967.422 Q208.577 969.32 206.471 971.913 Q205.892 972.584 202.79 975.801 Q199.688 978.996 194.04 984.76 Z" fill="#000000" fill-rule="nonzero" fill-opacity="1" /><path clip-path="url(#clip330)" d="M230.174 957.214 Q226.563 957.214 224.735 960.778 Q222.929 964.32 222.929 971.45 Q222.929 978.556 224.735 982.121 Q226.563 985.663 230.174 985.663 Q233.809 985.663 235.614 982.121 Q237.443 978.556 237.443 971.45 Q237.443 964.32 235.614 960.778 Q233.809 957.214 230.174 957.214 M230.174 953.51 Q235.985 953.51 239.04 958.116 Q242.119 962.7 242.119 971.45 Q242.119 980.176 239.04 984.783 Q235.985 989.366 230.174 989.366 Q224.364 989.366 221.286 984.783 Q218.23 980.176 218.23 971.45 Q218.23 962.7 221.286 958.116 Q224.364 953.51 230.174 953.51 Z" fill="#000000" fill-rule="nonzero" fill-opacity="1" /><path clip-path="url(#clip330)" d="M230.174 725.659 Q226.563 725.659 224.735 729.224 Q222.929 732.765 222.929 739.895 Q222.929 747.001 224.735 750.566 Q226.563 754.108 230.174 754.108 Q233.809 754.108 235.614 750.566 Q237.443 747.001 237.443 739.895 Q237.443 732.765 235.614 729.224 Q233.809 725.659 230.174 725.659 M230.174 721.955 Q235.985 721.955 239.04 726.562 Q242.119 731.145 242.119 739.895 Q242.119 748.622 239.04 753.228 Q235.985 757.811 230.174 757.811 Q224.364 757.811 221.286 753.228 Q218.23 748.622 218.23 739.895 Q218.23 731.145 221.286 726.562 Q224.364 721.955 230.174 721.955 Z" fill="#000000" fill-rule="nonzero" fill-opacity="1" /><path clip-path="url(#clip330)" d="M194.04 521.65 L210.36 521.65 L210.36 525.585 L188.415 525.585 L188.415 521.65 Q191.077 518.895 195.661 514.266 Q200.267 509.613 201.448 508.27 Q203.693 505.747 204.573 504.011 Q205.475 502.252 205.475 500.562 Q205.475 497.808 203.531 496.071 Q201.61 494.335 198.508 494.335 Q196.309 494.335 193.855 495.099 Q191.425 495.863 188.647 497.414 L188.647 492.692 Q191.471 491.558 193.925 490.979 Q196.378 490.4 198.415 490.4 Q203.786 490.4 206.98 493.085 Q210.175 495.771 210.175 500.261 Q210.175 502.391 209.364 504.312 Q208.577 506.21 206.471 508.803 Q205.892 509.474 202.79 512.692 Q199.688 515.886 194.04 521.65 Z" fill="#000000" fill-rule="nonzero" fill-opacity="1" /><path clip-path="url(#clip330)" d="M230.174 494.104 Q226.563 494.104 224.735 497.669 Q222.929 501.21 222.929 508.34 Q222.929 515.446 224.735 519.011 Q226.563 522.553 230.174 522.553 Q233.809 522.553 235.614 519.011 Q237.443 515.446 237.443 508.34 Q237.443 501.21 235.614 497.669 Q233.809 494.104 230.174 494.104 M230.174 490.4 Q235.985 490.4 239.04 495.007 Q242.119 499.59 242.119 508.34 Q242.119 517.067 239.04 521.673 Q235.985 526.257 230.174 526.257 Q224.364 526.257 221.286 521.673 Q218.23 517.067 218.23 508.34 Q218.23 499.59 221.286 495.007 Q224.364 490.4 230.174 490.4 Z" fill="#000000" fill-rule="nonzero" fill-opacity="1" /><path clip-path="url(#clip330)" d="M28.4683 1019.47 L28.4683 1009.89 L60.8061 997.763 L28.4683 985.573 L28.4683 975.993 L75.9883 975.993 L75.9883 982.263 L34.2611 982.263 L66.8535 994.517 L66.8535 1000.98 L34.2611 1013.23 L75.9883 1013.23 L75.9883 1019.47 L28.4683 1019.47 Z" fill="#000000" fill-rule="nonzero" fill-opacity="1" /><path clip-path="url(#clip330)" d="M58.0688 947.283 Q58.0688 954.381 59.6921 957.118 Q61.3153 959.856 65.2302 959.856 Q68.3494 959.856 70.1955 957.819 Q72.0097 955.75 72.0097 952.217 Q72.0097 947.347 68.5722 944.419 Q65.1029 941.459 59.3738 941.459 L58.0688 941.459 L58.0688 947.283 M55.6499 935.602 L75.9883 935.602 L75.9883 941.459 L70.5774 941.459 Q73.8239 943.464 75.3835 946.456 Q76.9113 949.448 76.9113 953.776 Q76.9113 959.251 73.8558 962.497 Q70.7684 965.712 65.6122 965.712 Q59.5966 965.712 56.541 961.702 Q53.4855 957.659 53.4855 949.67 L53.4855 941.459 L52.9126 941.459 Q48.8704 941.459 46.6742 944.132 Q44.4462 946.774 44.4462 951.58 Q44.4462 954.636 45.1783 957.532 Q45.9103 960.428 47.3744 963.102 L41.9636 963.102 Q40.7223 959.887 40.1175 956.864 Q39.481 953.84 39.481 950.975 Q39.481 943.241 43.4914 939.422 Q47.5017 935.602 55.6499 935.602 Z" fill="#000000" fill-rule="nonzero" fill-opacity="1" /><path clip-path="url(#clip330)" d="M57.7505 900.082 Q51.3848 900.082 47.8837 902.723 Q44.3826 905.333 44.3826 910.076 Q44.3826 914.786 47.8837 917.428 Q51.3848 920.038 57.7505 920.038 Q64.0844 920.038 67.5856 917.428 Q71.0867 914.786 71.0867 910.076 Q71.0867 905.333 67.5856 902.723 Q64.0844 900.082 57.7505 900.082 M71.5641 894.225 Q80.6671 894.225 85.0912 898.267 Q89.5472 902.31 89.5472 910.649 Q89.5472 913.736 89.0698 916.473 Q88.6242 919.211 87.6694 921.789 L81.972 921.789 Q83.3725 919.211 84.0409 916.696 Q84.7093 914.182 84.7093 911.572 Q84.7093 905.811 81.6856 902.946 Q78.6937 900.082 72.6145 900.082 L69.7181 900.082 Q72.8691 901.896 74.4287 904.729 Q75.9883 907.561 75.9883 911.508 Q75.9883 918.065 70.9912 922.075 Q65.9941 926.085 57.7505 926.085 Q49.4751 926.085 44.478 922.075 Q39.481 918.065 39.481 911.508 Q39.481 907.561 41.0406 904.729 Q42.6002 901.896 45.7512 900.082 L40.3403 900.082 L40.3403 894.225 L71.5641 894.225 Z" fill="#000000" fill-rule="nonzero" fill-opacity="1" /><path clip-path="url(#clip330)" d="M54.4722 852.53 L75.9883 852.53 L75.9883 858.386 L54.6632 858.386 Q49.6024 858.386 47.088 860.36 Q44.5735 862.333 44.5735 866.28 Q44.5735 871.022 47.5972 873.759 Q50.6209 876.497 55.8408 876.497 L75.9883 876.497 L75.9883 882.385 L40.3403 882.385 L40.3403 876.497 L45.8785 876.497 Q42.6638 874.396 41.0724 871.563 Q39.481 868.699 39.481 864.975 Q39.481 858.832 43.3004 855.681 Q47.088 852.53 54.4722 852.53 Z" fill="#000000" fill-rule="nonzero" fill-opacity="1" /><path clip-path="url(#clip330)" d="M40.3403 840.849 L40.3403 834.992 L75.9883 834.992 L75.9883 840.849 L40.3403 840.849 M26.4631 840.849 L26.4631 834.992 L33.8791 834.992 L33.8791 840.849 L26.4631 840.849 Z" fill="#000000" fill-rule="nonzero" fill-opacity="1" /><path clip-path="url(#clip330)" d="M30.2189 816.945 L40.3403 816.945 L40.3403 804.882 L44.8918 804.882 L44.8918 816.945 L64.2436 816.945 Q68.6041 816.945 69.8454 815.768 Q71.0867 814.558 71.0867 810.898 L71.0867 804.882 L75.9883 804.882 L75.9883 810.898 Q75.9883 817.678 73.4738 820.256 Q70.9275 822.834 64.2436 822.834 L44.8918 822.834 L44.8918 827.131 L40.3403 827.131 L40.3403 822.834 L30.2189 822.834 L30.2189 816.945 Z" fill="#000000" fill-rule="nonzero" fill-opacity="1" /><path clip-path="url(#clip330)" d="M61.9201 797.785 L40.3403 797.785 L40.3403 791.928 L61.6973 791.928 Q66.758 791.928 69.3043 789.955 Q71.8187 787.981 71.8187 784.035 Q71.8187 779.292 68.795 776.555 Q65.7713 773.786 60.5514 773.786 L40.3403 773.786 L40.3403 767.93 L75.9883 767.93 L75.9883 773.786 L70.5138 773.786 Q73.7603 775.918 75.3517 778.751 Q76.9113 781.552 76.9113 785.276 Q76.9113 791.419 73.0919 794.602 Q69.2725 797.785 61.9201 797.785 M39.481 783.048 L39.481 783.048 Z" fill="#000000" fill-rule="nonzero" fill-opacity="1" /><path clip-path="url(#clip330)" d="M45.7512 732.409 L26.4631 732.409 L26.4631 726.552 L75.9883 726.552 L75.9883 732.409 L70.6411 732.409 Q73.8239 734.255 75.3835 737.088 Q76.9113 739.889 76.9113 743.835 Q76.9113 750.297 71.7551 754.371 Q66.5989 758.413 58.1961 758.413 Q49.7934 758.413 44.6372 754.371 Q39.481 750.297 39.481 743.835 Q39.481 739.889 41.0406 737.088 Q42.5683 734.255 45.7512 732.409 M58.1961 752.365 Q64.6573 752.365 68.3494 749.724 Q72.0097 747.05 72.0097 742.403 Q72.0097 737.756 68.3494 735.082 Q64.6573 732.409 58.1961 732.409 Q51.7349 732.409 48.0747 735.082 Q44.3826 737.756 44.3826 742.403 Q44.3826 747.05 48.0747 749.724 Q51.7349 752.365 58.1961 752.365 Z" fill="#000000" fill-rule="nonzero" fill-opacity="1" /><path clip-path="url(#clip330)" d="M56.7002 683.998 L59.5648 683.998 L59.5648 710.925 Q65.6122 710.543 68.795 707.296 Q71.9461 704.018 71.9461 698.193 Q71.9461 694.819 71.1185 691.668 Q70.291 688.485 68.6359 685.366 L74.1741 685.366 Q75.5109 688.517 76.2111 691.827 Q76.9113 695.138 76.9113 698.543 Q76.9113 707.073 71.9461 712.07 Q66.9808 717.036 58.5144 717.036 Q49.7616 717.036 44.6372 712.325 Q39.481 707.583 39.481 699.562 Q39.481 692.369 44.1279 688.199 Q48.7431 683.998 56.7002 683.998 M54.9815 689.854 Q50.1753 689.918 47.3108 692.56 Q44.4462 695.169 44.4462 699.498 Q44.4462 704.4 47.2153 707.36 Q49.9844 710.288 55.0133 710.734 L54.9815 689.854 Z" fill="#000000" fill-rule="nonzero" fill-opacity="1" /><path clip-path="url(#clip330)" d="M26.5267 639.597 Q33.8473 643.862 41.0087 645.931 Q48.1701 648 55.5225 648 Q62.8749 648 70.1 645.931 Q77.2933 643.83 84.582 639.597 L84.582 644.689 Q77.1023 649.464 69.8772 651.851 Q62.6521 654.206 55.5225 654.206 Q48.4248 654.206 41.2315 651.851 Q34.0383 649.496 26.5267 644.689 L26.5267 639.597 Z" fill="#000000" fill-rule="nonzero" fill-opacity="1" /><path clip-path="url(#clip330)" d="M45.7512 604.776 L26.4631 604.776 L26.4631 598.92 L75.9883 598.92 L75.9883 604.776 L70.6411 604.776 Q73.8239 606.623 75.3835 609.455 Q76.9113 612.256 76.9113 616.203 Q76.9113 622.664 71.7551 626.738 Q66.5989 630.78 58.1961 630.78 Q49.7934 630.78 44.6372 626.738 Q39.481 622.664 39.481 616.203 Q39.481 612.256 41.0406 609.455 Q42.5683 606.623 45.7512 604.776 M58.1961 624.733 Q64.6573 624.733 68.3494 622.091 Q72.0097 619.418 72.0097 614.771 Q72.0097 610.124 68.3494 607.45 Q64.6573 604.776 58.1961 604.776 Q51.7349 604.776 48.0747 607.45 Q44.3826 610.124 44.3826 614.771 Q44.3826 619.418 48.0747 622.091 Q51.7349 624.733 58.1961 624.733 Z" fill="#000000" fill-rule="nonzero" fill-opacity="1" /><path clip-path="url(#clip330)" d="M53.2945 580.173 L70.7047 580.173 L70.7047 569.861 Q70.7047 564.673 68.5722 562.19 Q66.4079 559.675 61.9837 559.675 Q57.5277 559.675 55.4271 562.19 Q53.2945 564.673 53.2945 569.861 L53.2945 580.173 M33.7518 580.173 L48.0747 580.173 L48.0747 570.656 Q48.0747 565.946 46.3241 563.654 Q44.5417 561.331 40.9132 561.331 Q37.3166 561.331 35.5342 563.654 Q33.7518 565.946 33.7518 570.656 L33.7518 580.173 M28.4683 586.602 L28.4683 570.179 Q28.4683 562.826 31.5238 558.848 Q34.5794 554.869 40.213 554.869 Q44.5735 554.869 47.1516 556.906 Q49.7297 558.943 50.3663 562.89 Q51.3848 558.148 54.6313 555.538 Q57.846 552.896 62.684 552.896 Q69.0497 552.896 72.519 557.225 Q75.9883 561.553 75.9883 569.542 L75.9883 586.602 L28.4683 586.602 Z" fill="#000000" fill-rule="nonzero" fill-opacity="1" /><path clip-path="url(#clip330)" d="M26.5267 543.061 L26.5267 537.968 Q34.0383 533.194 41.2315 530.839 Q48.4248 528.452 55.5225 528.452 Q62.6521 528.452 69.8772 530.839 Q77.1023 533.194 84.582 537.968 L84.582 543.061 Q77.2933 538.828 70.1 536.759 Q62.8749 534.658 55.5225 534.658 Q48.1701 534.658 41.0087 536.759 Q33.8473 538.828 26.5267 543.061 Z" fill="#000000" fill-rule="nonzero" fill-opacity="1" /><path clip-path="url(#clip330)" d="M632.274 43.6931 L632.274 65.8515 L645.399 65.8515 Q652.002 65.8515 655.161 63.1374 Q658.362 60.3828 658.362 54.752 Q658.362 49.0808 655.161 46.4072 Q652.002 43.6931 645.399 43.6931 L632.274 43.6931 M632.274 18.8205 L632.274 37.0496 L644.386 37.0496 Q650.381 37.0496 653.298 34.8216 Q656.255 32.5531 656.255 27.935 Q656.255 23.3575 653.298 21.089 Q650.381 18.8205 644.386 18.8205 L632.274 18.8205 M624.091 12.096 L644.994 12.096 Q654.351 12.096 659.415 15.9849 Q664.478 19.8737 664.478 27.0438 Q664.478 32.5936 661.886 35.8748 Q659.293 39.156 654.27 39.9662 Q660.306 41.2625 663.628 45.3944 Q666.99 49.4858 666.99 55.6432 Q666.99 63.745 661.481 68.1605 Q655.972 72.576 645.804 72.576 L624.091 72.576 L624.091 12.096 Z" fill="#000000" fill-rule="nonzero" fill-opacity="1" /><path clip-path="url(#clip330)" d="M698.263 32.4315 Q692.268 32.4315 688.784 37.1306 Q685.3 41.7891 685.3 49.9314 Q685.3 58.0738 688.743 62.7728 Q692.227 67.4314 698.263 67.4314 Q704.218 67.4314 707.702 62.7323 Q711.185 58.0333 711.185 49.9314 Q711.185 41.8701 707.702 37.1711 Q704.218 32.4315 698.263 32.4315 M698.263 26.1121 Q707.985 26.1121 713.535 32.4315 Q719.085 38.7509 719.085 49.9314 Q719.085 61.0714 713.535 67.4314 Q707.985 73.7508 698.263 73.7508 Q688.5 73.7508 682.951 67.4314 Q677.441 61.0714 677.441 49.9314 Q677.441 38.7509 682.951 32.4315 Q688.5 26.1121 698.263 26.1121 Z" fill="#000000" fill-rule="nonzero" fill-opacity="1" /><path clip-path="url(#clip330)" d="M761.295 34.0924 L761.295 9.54393 L768.749 9.54393 L768.749 72.576 L761.295 72.576 L761.295 65.7705 Q758.945 69.8214 755.34 71.8063 Q751.775 73.7508 746.752 73.7508 Q738.529 73.7508 733.344 67.1883 Q728.199 60.6258 728.199 49.9314 Q728.199 39.2371 733.344 32.6746 Q738.529 26.1121 746.752 26.1121 Q751.775 26.1121 755.34 28.0971 Q758.945 30.0415 761.295 34.0924 M735.896 49.9314 Q735.896 58.1548 739.258 62.8538 Q742.661 67.5124 748.575 67.5124 Q754.489 67.5124 757.892 62.8538 Q761.295 58.1548 761.295 49.9314 Q761.295 41.7081 757.892 37.0496 Q754.489 32.3505 748.575 32.3505 Q742.661 32.3505 739.258 37.0496 Q735.896 41.7081 735.896 49.9314 Z" fill="#000000" fill-rule="nonzero" fill-opacity="1" /><path clip-path="url(#clip330)" d="M822.909 48.0275 L822.909 51.6733 L788.639 51.6733 Q789.125 59.3701 793.257 63.421 Q797.429 67.4314 804.842 67.4314 Q809.136 67.4314 813.147 66.3781 Q817.197 65.3249 821.167 63.2184 L821.167 70.267 Q817.157 71.9684 812.944 72.8596 Q808.731 73.7508 804.397 73.7508 Q793.54 73.7508 787.18 67.4314 Q780.861 61.1119 780.861 50.3365 Q780.861 39.1965 786.856 32.6746 Q792.892 26.1121 803.1 26.1121 Q812.255 26.1121 817.562 32.0264 Q822.909 37.9003 822.909 48.0275 M815.456 45.84 Q815.375 39.7232 812.012 36.0774 Q808.691 32.4315 803.181 32.4315 Q796.943 32.4315 793.176 35.9558 Q789.449 39.4801 788.882 45.8805 L815.456 45.84 Z" fill="#000000" fill-rule="nonzero" fill-opacity="1" /><path clip-path="url(#clip330)" d="M861.838 12.096 L874.032 12.096 L889.466 53.2532 L904.981 12.096 L917.174 12.096 L917.174 72.576 L909.194 72.576 L909.194 19.4686 L893.598 60.9499 L885.374 60.9499 L869.778 19.4686 L869.778 72.576 L861.838 72.576 L861.838 12.096 Z" fill="#000000" fill-rule="nonzero" fill-opacity="1" /><path clip-path="url(#clip330)" d="M953.713 49.7694 Q944.679 49.7694 941.196 51.8354 Q937.712 53.9013 937.712 58.8839 Q937.712 62.8538 940.304 65.2034 Q942.938 67.5124 947.434 67.5124 Q953.632 67.5124 957.359 63.1374 Q961.126 58.7219 961.126 51.4303 L961.126 49.7694 L953.713 49.7694 M968.58 46.6907 L968.58 72.576 L961.126 72.576 L961.126 65.6895 Q958.574 69.8214 954.766 71.8063 Q950.958 73.7508 945.449 73.7508 Q938.482 73.7508 934.35 69.8619 Q930.258 65.9325 930.258 59.3701 Q930.258 51.7138 935.362 47.825 Q940.507 43.9361 950.675 43.9361 L961.126 43.9361 L961.126 43.2069 Q961.126 38.0623 957.723 35.2672 Q954.361 32.4315 948.244 32.4315 Q944.355 32.4315 940.669 33.3632 Q936.983 34.295 933.58 36.1584 L933.58 29.2718 Q937.671 27.692 941.52 26.9223 Q945.368 26.1121 949.014 26.1121 Q958.858 26.1121 963.719 31.2163 Q968.58 36.3204 968.58 46.6907 Z" fill="#000000" fill-rule="nonzero" fill-opacity="1" /><path clip-path="url(#clip330)" d="M1013.79 49.3643 Q1013.79 41.2625 1010.43 36.8065 Q1007.1 32.3505 1001.07 32.3505 Q995.073 32.3505 991.71 36.8065 Q988.389 41.2625 988.389 49.3643 Q988.389 57.4256 991.71 61.8816 Q995.073 66.3376 1001.07 66.3376 Q1007.1 66.3376 1010.43 61.8816 Q1013.79 57.4256 1013.79 49.3643 M1021.24 66.9452 Q1021.24 78.5308 1016.1 84.1616 Q1010.95 89.8329 1000.34 89.8329 Q996.409 89.8329 992.926 89.2252 Q989.442 88.6581 986.161 87.4428 L986.161 80.1917 Q989.442 81.9741 992.642 82.8248 Q995.842 83.6755 999.164 83.6755 Q1006.5 83.6755 1010.14 79.8271 Q1013.79 76.0193 1013.79 68.282 L1013.79 64.5957 Q1011.48 68.6061 1007.87 70.5911 Q1004.27 72.576 999.245 72.576 Q990.9 72.576 985.796 66.2161 Q980.692 59.8562 980.692 49.3643 Q980.692 38.832 985.796 32.472 Q990.9 26.1121 999.245 26.1121 Q1004.27 26.1121 1007.87 28.0971 Q1011.48 30.082 1013.79 34.0924 L1013.79 27.2059 L1021.24 27.2059 L1021.24 66.9452 Z" fill="#000000" fill-rule="nonzero" fill-opacity="1" /><path clip-path="url(#clip330)" d="M1074.31 45.1919 L1074.31 72.576 L1066.85 72.576 L1066.85 45.4349 Q1066.85 38.994 1064.34 35.7938 Q1061.83 32.5936 1056.81 32.5936 Q1050.77 32.5936 1047.29 36.4419 Q1043.81 40.2903 1043.81 46.9338 L1043.81 72.576 L1036.31 72.576 L1036.31 27.2059 L1043.81 27.2059 L1043.81 34.2544 Q1046.48 30.163 1050.08 28.1376 Q1053.73 26.1121 1058.47 26.1121 Q1066.29 26.1121 1070.3 30.9732 Q1074.31 35.7938 1074.31 45.1919 Z" fill="#000000" fill-rule="nonzero" fill-opacity="1" /><path clip-path="url(#clip330)" d="M1089.18 27.2059 L1096.63 27.2059 L1096.63 72.576 L1089.18 72.576 L1089.18 27.2059 M1089.18 9.54393 L1096.63 9.54393 L1096.63 18.9825 L1089.18 18.9825 L1089.18 9.54393 Z" fill="#000000" fill-rule="nonzero" fill-opacity="1" /><path clip-path="url(#clip330)" d="M1119.6 14.324 L1119.6 27.2059 L1134.95 27.2059 L1134.95 32.9987 L1119.6 32.9987 L1119.6 57.6282 Q1119.6 63.1779 1121.1 64.7578 Q1122.64 66.3376 1127.29 66.3376 L1134.95 66.3376 L1134.95 72.576 L1127.29 72.576 Q1118.67 72.576 1115.38 69.3758 Q1112.1 66.1351 1112.1 57.6282 L1112.1 32.9987 L1106.63 32.9987 L1106.63 27.2059 L1112.1 27.2059 L1112.1 14.324 L1119.6 14.324 Z" fill="#000000" fill-rule="nonzero" fill-opacity="1" /><path clip-path="url(#clip330)" d="M1143.98 54.671 L1143.98 27.2059 L1151.44 27.2059 L1151.44 54.3874 Q1151.44 60.8284 1153.95 64.0691 Q1156.46 67.2693 1161.48 67.2693 Q1167.52 67.2693 1171 63.421 Q1174.53 59.5726 1174.53 52.9291 L1174.53 27.2059 L1181.98 27.2059 L1181.98 72.576 L1174.53 72.576 L1174.53 65.6084 Q1171.81 69.7404 1168.21 71.7658 Q1164.64 73.7508 1159.9 73.7508 Q1152.09 73.7508 1148.03 68.8897 Q1143.98 64.0286 1143.98 54.671 M1162.74 26.1121 L1162.74 26.1121 Z" fill="#000000" fill-rule="nonzero" fill-opacity="1" /><path clip-path="url(#clip330)" d="M1227.19 34.0924 L1227.19 9.54393 L1234.64 9.54393 L1234.64 72.576 L1227.19 72.576 L1227.19 65.7705 Q1224.84 69.8214 1221.23 71.8063 Q1217.67 73.7508 1212.65 73.7508 Q1204.42 73.7508 1199.24 67.1883 Q1194.09 60.6258 1194.09 49.9314 Q1194.09 39.2371 1199.24 32.6746 Q1204.42 26.1121 1212.65 26.1121 Q1217.67 26.1121 1221.23 28.0971 Q1224.84 30.0415 1227.19 34.0924 M1201.79 49.9314 Q1201.79 58.1548 1205.15 62.8538 Q1208.56 67.5124 1214.47 67.5124 Q1220.38 67.5124 1223.79 62.8538 Q1227.19 58.1548 1227.19 49.9314 Q1227.19 41.7081 1223.79 37.0496 Q1220.38 32.3505 1214.47 32.3505 Q1208.56 32.3505 1205.15 37.0496 Q1201.79 41.7081 1201.79 49.9314 Z" fill="#000000" fill-rule="nonzero" fill-opacity="1" /><path clip-path="url(#clip330)" d="M1288.8 48.0275 L1288.8 51.6733 L1254.53 51.6733 Q1255.02 59.3701 1259.15 63.421 Q1263.32 67.4314 1270.74 67.4314 Q1275.03 67.4314 1279.04 66.3781 Q1283.09 65.3249 1287.06 63.2184 L1287.06 70.267 Q1283.05 71.9684 1278.84 72.8596 Q1274.63 73.7508 1270.29 73.7508 Q1259.43 73.7508 1253.07 67.4314 Q1246.76 61.1119 1246.76 50.3365 Q1246.76 39.1965 1252.75 32.6746 Q1258.79 26.1121 1268.99 26.1121 Q1278.15 26.1121 1283.46 32.0264 Q1288.8 37.9003 1288.8 48.0275 M1281.35 45.84 Q1281.27 39.7232 1277.91 36.0774 Q1274.59 32.4315 1269.08 32.4315 Q1262.84 32.4315 1259.07 35.9558 Q1255.34 39.4801 1254.78 45.8805 L1281.35 45.84 Z" fill="#000000" fill-rule="nonzero" fill-opacity="1" /><path clip-path="url(#clip330)" d="M1335.92 18.8205 L1335.92 41.5461 L1346.21 41.5461 Q1351.92 41.5461 1355.04 38.5889 Q1358.16 35.6318 1358.16 30.163 Q1358.16 24.7348 1355.04 21.7777 Q1351.92 18.8205 1346.21 18.8205 L1335.92 18.8205 M1327.73 12.096 L1346.21 12.096 Q1356.37 12.096 1361.56 16.714 Q1366.78 21.2916 1366.78 30.163 Q1366.78 39.1155 1361.56 43.6931 Q1356.37 48.2706 1346.21 48.2706 L1335.92 48.2706 L1335.92 72.576 L1327.73 72.576 L1327.73 12.096 Z" fill="#000000" fill-rule="nonzero" fill-opacity="1" /><path clip-path="url(#clip330)" d="M1377.44 9.54393 L1384.89 9.54393 L1384.89 72.576 L1377.44 72.576 L1377.44 9.54393 Z" fill="#000000" fill-rule="nonzero" fill-opacity="1" /><path clip-path="url(#clip330)" d="M1418.07 32.4315 Q1412.07 32.4315 1408.59 37.1306 Q1405.11 41.7891 1405.11 49.9314 Q1405.11 58.0738 1408.55 62.7728 Q1412.03 67.4314 1418.07 67.4314 Q1424.02 67.4314 1427.51 62.7323 Q1430.99 58.0333 1430.99 49.9314 Q1430.99 41.8701 1427.51 37.1711 Q1424.02 32.4315 1418.07 32.4315 M1418.07 26.1121 Q1427.79 26.1121 1433.34 32.4315 Q1438.89 38.7509 1438.89 49.9314 Q1438.89 61.0714 1433.34 67.4314 Q1427.79 73.7508 1418.07 73.7508 Q1408.31 73.7508 1402.76 67.4314 Q1397.25 61.0714 1397.25 49.9314 Q1397.25 38.7509 1402.76 32.4315 Q1408.31 26.1121 1418.07 26.1121 Z" fill="#000000" fill-rule="nonzero" fill-opacity="1" /><path clip-path="url(#clip330)" d="M1458.62 14.324 L1458.62 27.2059 L1473.97 27.2059 L1473.97 32.9987 L1458.62 32.9987 L1458.62 57.6282 Q1458.62 63.1779 1460.12 64.7578 Q1461.66 66.3376 1466.31 66.3376 L1473.97 66.3376 L1473.97 72.576 L1466.31 72.576 Q1457.69 72.576 1454.4 69.3758 Q1451.12 66.1351 1451.12 57.6282 L1451.12 32.9987 L1445.65 32.9987 L1445.65 27.2059 L1451.12 27.2059 L1451.12 14.324 L1458.62 14.324 Z" fill="#000000" fill-rule="nonzero" fill-opacity="1" /><polyline clip-path="url(#clip332)" style="stroke:#009af9; stroke-linecap:round; stroke-linejoin:round; stroke-width:4; stroke-opacity:1; fill:none" points="344.397,508.295 347.221,508.295 350.045,508.295 352.869,508.294 355.694,508.294 358.518,508.293 361.342,508.293 364.166,508.292 366.99,508.292 369.814,508.291 372.639,508.291 375.463,508.29 378.287,508.29 381.111,508.289 383.935,508.289 386.76,508.288 389.584,508.287 392.408,508.287 395.232,508.286 398.056,508.285 400.881,508.284 403.705,508.284 406.529,508.283 409.353,508.282 412.177,508.281 415.001,508.28 417.826,508.279 420.65,508.278 423.474,508.277 426.298,508.276 429.122,508.275 431.947,508.274 434.771,508.273 437.595,508.272 440.419,508.27 443.243,508.269 446.067,508.268 448.892,508.266 451.716,508.265 454.54,508.263 457.364,508.262 460.188,508.26 463.013,508.259 465.837,508.257 468.661,508.255 471.485,508.253 474.309,508.251 477.133,508.249 479.958,508.247 482.782,508.245 485.606,508.242 488.43,508.24 491.254,508.238 494.079,508.235 496.903,508.232 499.727,508.23 502.551,508.227 505.375,508.224 508.199,508.221 511.024,508.218 513.848,508.214 516.672,508.211 519.496,508.207 522.32,508.204 525.145,508.2 527.969,508.196 530.793,508.192 533.617,508.188 536.441,508.183 539.266,508.179 542.09,508.174 544.914,508.169 547.738,508.164 550.562,508.158 553.386,508.153 556.211,508.147 559.035,508.141 561.859,508.135 564.683,508.129 567.507,508.122 570.332,508.115 573.156,508.108 575.98,508.101 578.804,508.093 581.628,508.085 584.452,508.077 587.277,508.068 590.101,508.059 592.925,508.05 595.749,508.04 598.573,508.03 601.398,508.02 604.222,508.009 607.046,507.998 609.87,507.986 612.694,507.974 615.518,507.962 618.343,507.949 621.167,507.936 623.991,507.922 626.815,507.907 629.639,507.892 632.464,507.877 635.288,507.86 638.112,507.844 640.936,507.826 643.76,507.808 646.585,507.79 649.409,507.77 652.233,507.75 655.057,507.729 657.881,507.707 660.705,507.685 663.53,507.661 666.354,507.637 669.178,507.612 672.002,507.586 674.826,507.558 677.651,507.53 680.475,507.501 683.299,507.471 686.123,507.439 688.947,507.406 691.771,507.373 694.596,507.337 697.42,507.301 700.244,507.263 703.068,507.223 705.892,507.182 708.717,507.14 711.541,507.096 714.365,507.05 717.189,507.003 720.013,506.953 722.837,506.902 725.662,506.849 728.486,506.794 731.31,506.737 734.134,506.677 736.958,506.616 739.783,506.552 742.607,506.485 745.431,506.416 748.255,506.344 751.079,506.27 753.904,506.192 756.728,506.112 759.552,506.029 762.376,505.942 765.2,505.852 768.024,505.759 770.849,505.662 773.673,505.561 776.497,505.457 779.321,505.348 782.145,505.235 784.97,505.118 787.794,504.996 790.618,504.87 793.442,504.739 796.266,504.602 799.09,504.46 801.915,504.313 804.739,504.16 807.563,504.001 810.387,503.835 813.211,503.664 816.036,503.485 818.86,503.3 821.684,503.107 824.508,502.906 827.332,502.698 830.156,502.481 832.981,502.255 835.805,502.021 838.629,501.777 841.453,501.524 844.277,501.26 847.102,500.986 849.926,500.701 852.75,500.404 855.574,500.095 858.398,499.774 861.223,499.439 864.047,499.091 866.871,498.728 869.695,498.351 872.519,497.958 875.343,497.548 878.168,497.122 880.992,496.677 883.816,496.214 886.64,495.732 889.464,495.229 892.289,494.704 895.113,494.158 897.937,493.587 900.761,492.992 903.585,492.371 906.409,491.723 909.234,491.047 912.058,490.34 914.882,489.602 917.706,488.831 920.53,488.025 923.355,487.182 926.179,486.301 929.003,485.379 931.827,484.414 934.651,483.403 937.475,482.344 940.3,481.235 943.124,480.072 945.948,478.852 948.772,477.571 951.596,476.227 954.421,474.814 957.245,473.329 960.069,471.767 962.893,470.122 965.717,468.389 968.541,466.563 971.366,464.636 974.19,462.601 977.014,460.45 979.838,458.175 982.662,455.766 985.487,453.212 988.311,450.501 991.135,447.622 993.959,444.558 996.783,441.295 999.608,437.815 1002.43,434.099 1005.26,430.125 1008.08,425.871 1010.9,421.311 1013.73,416.418 1016.55,411.167 1019.38,405.532 1022.2,399.493 1025.03,393.039 1027.85,386.183 1030.67,378.977 1033.5,371.541 1036.32,364.106 1039.15,357.077 1041.97,351.071 1044.79,346.912 1047.62,345.462 1050.44,347.3 1053.27,352.425 1056.09,360.26 1058.92,369.941 1061.74,380.646 1064.56,391.755 1067.39,402.866 1070.21,413.747 1073.04,424.276 1075.86,434.404 1078.68,444.116 1081.51,453.424 1084.33,462.347 1087.16,470.91 1089.98,479.141 1092.81,487.066 1095.63,494.709 1098.45,502.093 1101.28,509.241 1104.1,516.17 1106.93,522.899 1109.75,529.443 1112.57,535.817 1115.4,542.033 1118.22,548.103 1121.05,554.037 1123.87,559.846 1126.7,565.537 1129.52,571.119 1132.34,576.599 1135.17,581.983 1137.99,587.278 1140.82,592.488 1143.64,597.619 1146.47,602.676 1149.29,607.663 1152.11,612.583 1154.94,617.441 1157.76,622.239 1160.59,626.981 1163.41,631.67 1166.23,636.308 1169.06,640.898 1171.88,645.442 1174.71,649.943 1177.53,654.401 1180.36,658.82 1183.18,663.201 1186,667.545 1188.83,671.854 1191.65,676.129 1194.48,680.372 1197.3,684.584 1200.12,688.766 1202.95,692.92 1205.77,697.045 1208.6,701.143 1211.42,705.216 1214.25,709.263 1217.07,713.285 1219.89,717.284 1222.72,721.26 1225.54,725.213 1228.37,729.144 1231.19,733.054 1234.01,736.943 1236.84,740.812 1239.66,744.66 1242.49,748.489 1245.31,752.298 1248.14,756.089 1250.96,759.861 1253.78,763.614 1256.61,767.35 1259.43,771.067 1262.26,774.767 1265.08,778.449 1267.9,782.114 1270.73,785.761 1273.55,789.392 1276.38,793.005 1279.2,796.601 1282.03,800.181 1284.85,803.743 1287.67,807.289 1290.5,810.818 1293.32,814.331 1296.15,817.826 1298.97,821.305 1301.8,824.767 1304.62,828.212 1307.44,831.64 1310.27,835.052 1313.09,838.446 1315.92,841.824 1318.74,845.184 1321.56,848.527 1324.39,851.853 1327.21,855.162 1330.04,858.453 1332.86,861.727 1335.69,864.984 1338.51,868.222 1341.33,871.443 1344.16,874.646 1346.98,877.832 1349.81,880.999 1352.63,884.148 1355.45,887.279 1358.28,890.392 1361.1,893.487 1363.93,896.563 1366.75,899.621 1369.58,902.66 1372.4,905.681 1375.22,908.683 1378.05,911.667 1380.87,914.632 1383.7,917.579 1386.52,920.506 1389.34,923.416 1392.17,926.306 1394.99,929.178 1397.82,932.032 1400.64,934.866 1403.47,937.683 1406.29,940.481 1409.11,943.26 1411.94,946.021 1414.76,948.764 1417.59,951.489 1420.41,954.196 1423.24,956.885 1426.06,959.556 1428.88,962.209 1431.71,964.845 1434.53,967.463 1437.36,970.064 1440.18,972.648 1443,975.216 1445.83,977.766 1448.65,980.3 1451.48,982.818 1454.3,985.319 1457.13,987.805 1459.95,990.275 1462.77,992.729 1465.6,995.169 1468.42,997.593 1471.25,1000 1474.07,1002.4 1476.89,1004.78 1479.72,1007.14 1482.54,1009.5 1485.37,1011.84 1488.19,1014.16 1491.02,1016.48 1493.84,1018.78 1496.66,1021.06 1499.49,1023.34 1502.31,1025.6 1505.14,1027.85 1507.96,1030.09 1510.78,1032.32 1513.61,1034.54 1516.43,1036.75 1519.26,1038.94 1522.08,1041.13 1524.91,1043.3 1527.73,1045.47 1530.55,1047.63 1533.38,1049.78 1536.2,1051.91 1539.03,1054.04 1541.85,1056.17 1544.68,1058.28 1547.5,1060.38 1550.32,1062.48 1553.15,1064.57 1555.97,1066.65 1558.8,1068.73 1561.62,1070.79 1564.44,1072.85 1567.27,1074.91 1570.09,1076.96 1572.92,1079 1575.74,1081.03 1578.57,1083.06 1581.39,1085.09 1584.21,1087.1 1587.04,1089.12 1589.86,1091.12 1592.69,1093.13 1595.51,1095.12 1598.33,1097.12 1601.16,1099.1 1603.98,1101.09 1606.81,1103.07 1609.63,1105.04 1612.46,1107.01 1615.28,1108.98 1618.1,1110.94 1620.93,1112.9 1623.75,1114.86 1626.58,1116.81 1629.4,1118.76 1632.22,1120.71 1635.05,1122.65 1637.87,1124.59 1640.7,1126.53 1643.52,1128.46 1646.35,1130.39 1649.17,1132.32 1651.99,1134.25 1654.82,1136.17 1657.64,1138.09 1660.47,1140.01 1663.29,1141.93 1666.11,1143.84 1668.94,1145.76 1671.76,1147.67 1674.59,1149.58 1677.41,1151.48 1680.24,1153.39 1683.06,1155.29 1685.88,1157.19 1688.71,1159.09 1691.53,1160.99 1694.36,1162.89 1697.18,1164.78 1700.01,1166.68 1702.83,1168.57 1705.65,1170.46 1708.48,1172.35 1711.3,1174.24 1714.13,1176.13 1716.95,1178.02 1719.77,1179.9 1722.6,1181.79 1725.42,1183.67 1728.25,1185.55 1731.07,1187.44 1733.9,1189.32 1736.72,1191.2 1739.54,1193.08 1742.37,1194.95 1745.19,1196.83 1748.02,1198.71 1750.84,1200.58 1753.66,1202.46 "/>
<path clip-path="url(#clip330)" d="M2317.2 1228.17 L3811.02 1228.17 L3811.02 319.753 L2317.2 319.753  Z" fill="#ffffff" fill-rule="evenodd" fill-opacity="1"/>
<defs>
  <clipPath id="clip333">
    <rect x="2317" y="319" width="1495" height="909"/>
  </clipPath>
</defs>
<polyline clip-path="url(#clip333)" style="stroke:#000000; stroke-linecap:round; stroke-linejoin:round; stroke-width:2; stroke-opacity:0.1; fill:none" points="2711.79,1228.17 2711.79,319.753 "/>
<polyline clip-path="url(#clip333)" style="stroke:#000000; stroke-linecap:round; stroke-linejoin:round; stroke-width:2; stroke-opacity:0.1; fill:none" points="3416.43,1228.17 3416.43,319.753 "/>
<polyline clip-path="url(#clip333)" style="stroke:#000000; stroke-linecap:round; stroke-linejoin:round; stroke-width:2; stroke-opacity:0.1; fill:none" points="2317.2,1143.28 3811.02,1143.28 "/>
<polyline clip-path="url(#clip333)" style="stroke:#000000; stroke-linecap:round; stroke-linejoin:round; stroke-width:2; stroke-opacity:0.1; fill:none" points="2317.2,877.241 3811.02,877.241 "/>
<polyline clip-path="url(#clip333)" style="stroke:#000000; stroke-linecap:round; stroke-linejoin:round; stroke-width:2; stroke-opacity:0.1; fill:none" points="2317.2,611.199 3811.02,611.199 "/>
<polyline clip-path="url(#clip333)" style="stroke:#000000; stroke-linecap:round; stroke-linejoin:round; stroke-width:2; stroke-opacity:0.1; fill:none" points="2317.2,345.158 3811.02,345.158 "/>
<polyline clip-path="url(#clip330)" style="stroke:#000000; stroke-linecap:round; stroke-linejoin:round; stroke-width:4; stroke-opacity:1; fill:none" points="2317.2,1228.17 3811.02,1228.17 "/>
<polyline clip-path="url(#clip330)" style="stroke:#000000; stroke-linecap:round; stroke-linejoin:round; stroke-width:4; stroke-opacity:1; fill:none" points="2711.79,1228.17 2711.79,1209.27 "/>
<polyline clip-path="url(#clip330)" style="stroke:#000000; stroke-linecap:round; stroke-linejoin:round; stroke-width:4; stroke-opacity:1; fill:none" points="3416.43,1228.17 3416.43,1209.27 "/>
<path clip-path="url(#clip330)" d="M2676.78 1315.09 L2684.42 1315.09 L2684.42 1288.73 L2676.11 1290.4 L2676.11 1286.14 L2684.37 1284.47 L2689.05 1284.47 L2689.05 1315.09 L2696.68 1315.09 L2696.68 1319.03 L2676.78 1319.03 L2676.78 1315.09 Z" fill="#000000" fill-rule="nonzero" fill-opacity="1" /><path clip-path="url(#clip330)" d="M2716.13 1287.55 Q2712.52 1287.55 2710.69 1291.11 Q2708.88 1294.65 2708.88 1301.78 Q2708.88 1308.89 2710.69 1312.46 Q2712.52 1316 2716.13 1316 Q2719.76 1316 2721.57 1312.46 Q2723.4 1308.89 2723.4 1301.78 Q2723.4 1294.65 2721.57 1291.11 Q2719.76 1287.55 2716.13 1287.55 M2716.13 1283.84 Q2721.94 1283.84 2724.99 1288.45 Q2728.07 1293.03 2728.07 1301.78 Q2728.07 1310.51 2724.99 1315.12 Q2721.94 1319.7 2716.13 1319.7 Q2710.32 1319.7 2707.24 1315.12 Q2704.18 1310.51 2704.18 1301.78 Q2704.18 1293.03 2707.24 1288.45 Q2710.32 1283.84 2716.13 1283.84 Z" fill="#000000" fill-rule="nonzero" fill-opacity="1" /><path clip-path="url(#clip330)" d="M2737.78 1266.04 Q2734.84 1266.04 2733.36 1268.94 Q2731.89 1271.81 2731.89 1277.61 Q2731.89 1283.38 2733.36 1286.28 Q2734.84 1289.16 2737.78 1289.16 Q2740.73 1289.16 2742.2 1286.28 Q2743.68 1283.38 2743.68 1277.61 Q2743.68 1271.81 2742.2 1268.94 Q2740.73 1266.04 2737.78 1266.04 M2737.78 1263.03 Q2742.5 1263.03 2744.98 1266.77 Q2747.48 1270.5 2747.48 1277.61 Q2747.48 1284.7 2744.98 1288.44 Q2742.5 1292.16 2737.78 1292.16 Q2733.06 1292.16 2730.56 1288.44 Q2728.07 1284.7 2728.07 1277.61 Q2728.07 1270.5 2730.56 1266.77 Q2733.06 1263.03 2737.78 1263.03 Z" fill="#000000" fill-rule="nonzero" fill-opacity="1" /><path clip-path="url(#clip330)" d="M3382.2 1315.09 L3389.84 1315.09 L3389.84 1288.73 L3381.53 1290.4 L3381.53 1286.14 L3389.79 1284.47 L3394.47 1284.47 L3394.47 1315.09 L3402.11 1315.09 L3402.11 1319.03 L3382.2 1319.03 L3382.2 1315.09 Z" fill="#000000" fill-rule="nonzero" fill-opacity="1" /><path clip-path="url(#clip330)" d="M3421.55 1287.55 Q3417.94 1287.55 3416.11 1291.11 Q3414.31 1294.65 3414.31 1301.78 Q3414.31 1308.89 3416.11 1312.46 Q3417.94 1316 3421.55 1316 Q3425.19 1316 3426.99 1312.46 Q3428.82 1308.89 3428.82 1301.78 Q3428.82 1294.65 3426.99 1291.11 Q3425.19 1287.55 3421.55 1287.55 M3421.55 1283.84 Q3427.36 1283.84 3430.42 1288.45 Q3433.5 1293.03 3433.5 1301.78 Q3433.5 1310.51 3430.42 1315.12 Q3427.36 1319.7 3421.55 1319.7 Q3415.74 1319.7 3412.66 1315.12 Q3409.61 1310.51 3409.61 1301.78 Q3409.61 1293.03 3412.66 1288.45 Q3415.74 1283.84 3421.55 1283.84 Z" fill="#000000" fill-rule="nonzero" fill-opacity="1" /><path clip-path="url(#clip330)" d="M3438.07 1288.42 L3451.33 1288.42 L3451.33 1291.62 L3433.5 1291.62 L3433.5 1288.42 Q3435.66 1286.18 3439.38 1282.42 Q3443.13 1278.64 3444.09 1277.55 Q3445.91 1275.5 3446.63 1274.09 Q3447.36 1272.66 3447.36 1271.29 Q3447.36 1269.05 3445.78 1267.64 Q3444.22 1266.23 3441.7 1266.23 Q3439.91 1266.23 3437.92 1266.85 Q3435.94 1267.47 3433.69 1268.73 L3433.69 1264.89 Q3435.98 1263.97 3437.97 1263.5 Q3439.97 1263.03 3441.62 1263.03 Q3445.99 1263.03 3448.58 1265.21 Q3451.18 1267.39 3451.18 1271.04 Q3451.18 1272.77 3450.52 1274.33 Q3449.88 1275.88 3448.17 1277.98 Q3447.7 1278.53 3445.18 1281.14 Q3442.66 1283.74 3438.07 1288.42 Z" fill="#000000" fill-rule="nonzero" fill-opacity="1" /><path clip-path="url(#clip330)" d="M2783.93 1367.94 L2811.23 1367.94 L2811.23 1373.35 L2790.35 1373.35 L2790.35 1387.35 L2809.2 1387.35 L2809.2 1392.76 L2790.35 1392.76 L2790.35 1415.46 L2783.93 1415.46 L2783.93 1367.94 Z" fill="#000000" fill-rule="nonzero" fill-opacity="1" /><path clip-path="url(#clip330)" d="M2837.08 1385.28 Q2836.09 1384.71 2834.91 1384.46 Q2833.77 1384.17 2832.37 1384.17 Q2827.4 1384.17 2824.73 1387.42 Q2822.09 1390.63 2822.09 1396.68 L2822.09 1415.46 L2816.2 1415.46 L2816.2 1379.81 L2822.09 1379.81 L2822.09 1385.35 Q2823.93 1382.1 2826.89 1380.54 Q2829.85 1378.95 2834.09 1378.95 Q2834.69 1378.95 2835.42 1379.05 Q2836.16 1379.11 2837.05 1379.27 L2837.08 1385.28 Z" fill="#000000" fill-rule="nonzero" fill-opacity="1" /><path clip-path="url(#clip330)" d="M2872.28 1396.17 L2872.28 1399.03 L2845.35 1399.03 Q2845.74 1405.08 2848.98 1408.27 Q2852.26 1411.42 2858.09 1411.42 Q2861.46 1411.42 2864.61 1410.59 Q2867.79 1409.76 2870.91 1408.11 L2870.91 1413.64 Q2867.76 1414.98 2864.45 1415.68 Q2861.14 1416.38 2857.74 1416.38 Q2849.21 1416.38 2844.21 1411.42 Q2839.24 1406.45 2839.24 1397.98 Q2839.24 1389.23 2843.95 1384.11 Q2848.7 1378.95 2856.72 1378.95 Q2863.91 1378.95 2868.08 1383.6 Q2872.28 1388.21 2872.28 1396.17 M2866.42 1394.45 Q2866.36 1389.65 2863.72 1386.78 Q2861.11 1383.92 2856.78 1383.92 Q2851.88 1383.92 2848.92 1386.69 Q2845.99 1389.45 2845.55 1394.48 L2866.42 1394.45 Z" fill="#000000" fill-rule="nonzero" fill-opacity="1" /><path clip-path="url(#clip330)" d="M2885.39 1397.67 Q2885.39 1404.13 2888.04 1407.82 Q2890.71 1411.48 2895.36 1411.48 Q2900 1411.48 2902.68 1407.82 Q2905.35 1404.13 2905.35 1397.67 Q2905.35 1391.2 2902.68 1387.54 Q2900 1383.85 2895.36 1383.85 Q2890.71 1383.85 2888.04 1387.54 Q2885.39 1391.2 2885.39 1397.67 M2905.35 1410.11 Q2903.5 1413.29 2900.67 1414.85 Q2897.87 1416.38 2893.92 1416.38 Q2887.46 1416.38 2883.39 1411.23 Q2879.35 1406.07 2879.35 1397.67 Q2879.35 1389.26 2883.39 1384.11 Q2887.46 1378.95 2893.92 1378.95 Q2897.87 1378.95 2900.67 1380.51 Q2903.5 1382.04 2905.35 1385.22 L2905.35 1379.81 L2911.21 1379.81 L2911.21 1429.02 L2905.35 1429.02 L2905.35 1410.11 Z" fill="#000000" fill-rule="nonzero" fill-opacity="1" /><path clip-path="url(#clip330)" d="M2922.67 1401.39 L2922.67 1379.81 L2928.52 1379.81 L2928.52 1401.17 Q2928.52 1406.23 2930.5 1408.77 Q2932.47 1411.29 2936.42 1411.29 Q2941.16 1411.29 2943.9 1408.27 Q2946.66 1405.24 2946.66 1400.02 L2946.66 1379.81 L2952.52 1379.81 L2952.52 1415.46 L2946.66 1415.46 L2946.66 1409.98 Q2944.53 1413.23 2941.7 1414.82 Q2938.9 1416.38 2935.17 1416.38 Q2929.03 1416.38 2925.85 1412.56 Q2922.67 1408.74 2922.67 1401.39 M2937.4 1378.95 L2937.4 1378.95 Z" fill="#000000" fill-rule="nonzero" fill-opacity="1" /><path clip-path="url(#clip330)" d="M2995.08 1396.17 L2995.08 1399.03 L2968.15 1399.03 Q2968.53 1405.08 2971.78 1408.27 Q2975.06 1411.42 2980.88 1411.42 Q2984.25 1411.42 2987.4 1410.59 Q2990.59 1409.76 2993.71 1408.11 L2993.71 1413.64 Q2990.56 1414.98 2987.25 1415.68 Q2983.94 1416.38 2980.53 1416.38 Q2972 1416.38 2967 1411.42 Q2962.04 1406.45 2962.04 1397.98 Q2962.04 1389.23 2966.75 1384.11 Q2971.49 1378.95 2979.51 1378.95 Q2986.7 1378.95 2990.87 1383.6 Q2995.08 1388.21 2995.08 1396.17 M2989.22 1394.45 Q2989.16 1389.65 2986.51 1386.78 Q2983.9 1383.92 2979.58 1383.92 Q2974.67 1383.92 2971.71 1386.69 Q2968.79 1389.45 2968.34 1394.48 L2989.22 1394.45 Z" fill="#000000" fill-rule="nonzero" fill-opacity="1" /><path clip-path="url(#clip330)" d="M3034.32 1393.94 L3034.32 1415.46 L3028.46 1415.46 L3028.46 1394.13 Q3028.46 1389.07 3026.49 1386.56 Q3024.52 1384.04 3020.57 1384.04 Q3015.83 1384.04 3013.09 1387.07 Q3010.35 1390.09 3010.35 1395.31 L3010.35 1415.46 L3004.47 1415.46 L3004.47 1379.81 L3010.35 1379.81 L3010.35 1385.35 Q3012.45 1382.13 3015.29 1380.54 Q3018.15 1378.95 3021.88 1378.95 Q3028.02 1378.95 3031.17 1382.77 Q3034.32 1386.56 3034.32 1393.94 Z" fill="#000000" fill-rule="nonzero" fill-opacity="1" /><path clip-path="url(#clip330)" d="M3071.66 1381.18 L3071.66 1386.65 Q3069.17 1385.28 3066.66 1384.62 Q3064.18 1383.92 3061.63 1383.92 Q3055.93 1383.92 3052.78 1387.54 Q3049.63 1391.14 3049.63 1397.67 Q3049.63 1404.19 3052.78 1407.82 Q3055.93 1411.42 3061.63 1411.42 Q3064.18 1411.42 3066.66 1410.75 Q3069.17 1410.05 3071.66 1408.68 L3071.66 1414.09 Q3069.2 1415.24 3066.56 1415.81 Q3063.95 1416.38 3060.99 1416.38 Q3052.94 1416.38 3048.2 1411.32 Q3043.45 1406.26 3043.45 1397.67 Q3043.45 1388.95 3048.23 1383.95 Q3053.04 1378.95 3061.37 1378.95 Q3064.08 1378.95 3066.66 1379.52 Q3069.24 1380.06 3071.66 1381.18 Z" fill="#000000" fill-rule="nonzero" fill-opacity="1" /><path clip-path="url(#clip330)" d="M3096.67 1418.77 Q3094.19 1425.13 3091.83 1427.08 Q3089.48 1429.02 3085.53 1429.02 L3080.85 1429.02 L3080.85 1424.12 L3084.29 1424.12 Q3086.71 1424.12 3088.05 1422.97 Q3089.38 1421.82 3091.01 1417.56 L3092.06 1414.89 L3077.64 1379.81 L3083.85 1379.81 L3094.99 1407.69 L3106.13 1379.81 L3112.33 1379.81 L3096.67 1418.77 Z" fill="#000000" fill-rule="nonzero" fill-opacity="1" /><path clip-path="url(#clip330)" d="M3155.2 1366 Q3150.94 1373.32 3148.87 1380.48 Q3146.8 1387.64 3146.8 1394.99 Q3146.8 1402.34 3148.87 1409.57 Q3150.97 1416.76 3155.2 1424.05 L3150.11 1424.05 Q3145.34 1416.57 3142.95 1409.35 Q3140.6 1402.12 3140.6 1394.99 Q3140.6 1387.89 3142.95 1380.7 Q3145.31 1373.51 3150.11 1366 L3155.2 1366 Z" fill="#000000" fill-rule="nonzero" fill-opacity="1" /><path clip-path="url(#clip330)" d="M3187.22 1385.28 Q3186.24 1384.71 3185.06 1384.46 Q3183.91 1384.17 3182.51 1384.17 Q3177.55 1384.17 3174.87 1387.42 Q3172.23 1390.63 3172.23 1396.68 L3172.23 1415.46 L3166.34 1415.46 L3166.34 1379.81 L3172.23 1379.81 L3172.23 1385.35 Q3174.08 1382.1 3177.04 1380.54 Q3180 1378.95 3184.23 1378.95 Q3184.84 1378.95 3185.57 1379.05 Q3186.3 1379.11 3187.19 1379.27 L3187.22 1385.28 Z" fill="#000000" fill-rule="nonzero" fill-opacity="1" /><path clip-path="url(#clip330)" d="M3209.57 1397.54 Q3202.47 1397.54 3199.73 1399.16 Q3197 1400.79 3197 1404.7 Q3197 1407.82 3199.03 1409.67 Q3201.1 1411.48 3204.63 1411.48 Q3209.5 1411.48 3212.43 1408.04 Q3215.39 1404.57 3215.39 1398.84 L3215.39 1397.54 L3209.57 1397.54 M3221.25 1395.12 L3221.25 1415.46 L3215.39 1415.46 L3215.39 1410.05 Q3213.39 1413.29 3210.4 1414.85 Q3207.4 1416.38 3203.08 1416.38 Q3197.6 1416.38 3194.35 1413.33 Q3191.14 1410.24 3191.14 1405.08 Q3191.14 1399.07 3195.15 1396.01 Q3199.19 1392.96 3207.18 1392.96 L3215.39 1392.96 L3215.39 1392.38 Q3215.39 1388.34 3212.72 1386.14 Q3210.08 1383.92 3205.27 1383.92 Q3202.22 1383.92 3199.32 1384.65 Q3196.42 1385.38 3193.75 1386.84 L3193.75 1381.43 Q3196.96 1380.19 3199.99 1379.59 Q3203.01 1378.95 3205.88 1378.95 Q3213.61 1378.95 3217.43 1382.96 Q3221.25 1386.97 3221.25 1395.12 Z" fill="#000000" fill-rule="nonzero" fill-opacity="1" /><path clip-path="url(#clip330)" d="M3256.77 1385.22 L3256.77 1365.93 L3262.63 1365.93 L3262.63 1415.46 L3256.77 1415.46 L3256.77 1410.11 Q3254.92 1413.29 3252.09 1414.85 Q3249.29 1416.38 3245.34 1416.38 Q3238.88 1416.38 3234.81 1411.23 Q3230.77 1406.07 3230.77 1397.67 Q3230.77 1389.26 3234.81 1384.11 Q3238.88 1378.95 3245.34 1378.95 Q3249.29 1378.95 3252.09 1380.51 Q3254.92 1382.04 3256.77 1385.22 M3236.81 1397.67 Q3236.81 1404.13 3239.46 1407.82 Q3242.13 1411.48 3246.78 1411.48 Q3251.42 1411.48 3254.1 1407.82 Q3256.77 1404.13 3256.77 1397.67 Q3256.77 1391.2 3254.1 1387.54 Q3251.42 1383.85 3246.78 1383.85 Q3242.13 1383.85 3239.46 1387.54 Q3236.81 1391.2 3236.81 1397.67 Z" fill="#000000" fill-rule="nonzero" fill-opacity="1" /><path clip-path="url(#clip330)" d="M3285.1 1367.94 L3290.51 1367.94 L3273.96 1421.51 L3268.55 1421.51 L3285.1 1367.94 Z" fill="#000000" fill-rule="nonzero" fill-opacity="1" /><path clip-path="url(#clip330)" d="M3319.38 1380.86 L3319.38 1386.4 Q3316.89 1385.13 3314.22 1384.49 Q3311.55 1383.85 3308.68 1383.85 Q3304.32 1383.85 3302.13 1385.19 Q3299.96 1386.53 3299.96 1389.2 Q3299.96 1391.24 3301.52 1392.41 Q3303.08 1393.56 3307.79 1394.61 L3309.8 1395.06 Q3316.03 1396.39 3318.64 1398.84 Q3321.29 1401.26 3321.29 1405.62 Q3321.29 1410.59 3317.34 1413.48 Q3313.42 1416.38 3306.55 1416.38 Q3303.69 1416.38 3300.57 1415.81 Q3297.48 1415.27 3294.04 1414.15 L3294.04 1408.11 Q3297.29 1409.79 3300.44 1410.65 Q3303.59 1411.48 3306.68 1411.48 Q3310.81 1411.48 3313.04 1410.08 Q3315.27 1408.65 3315.27 1406.07 Q3315.27 1403.68 3313.65 1402.41 Q3312.06 1401.14 3306.61 1399.96 L3304.58 1399.48 Q3299.13 1398.33 3296.71 1395.98 Q3294.3 1393.59 3294.3 1389.45 Q3294.3 1384.43 3297.86 1381.69 Q3301.43 1378.95 3307.98 1378.95 Q3311.23 1378.95 3314.09 1379.43 Q3316.96 1379.91 3319.38 1380.86 Z" fill="#000000" fill-rule="nonzero" fill-opacity="1" /><path clip-path="url(#clip330)" d="M3329.69 1366 L3334.78 1366 Q3339.56 1373.51 3341.91 1380.7 Q3344.3 1387.89 3344.3 1394.99 Q3344.3 1402.12 3341.91 1409.35 Q3339.56 1416.57 3334.78 1424.05 L3329.69 1424.05 Q3333.92 1416.76 3335.99 1409.57 Q3338.09 1402.34 3338.09 1394.99 Q3338.09 1387.64 3335.99 1380.48 Q3333.92 1373.32 3329.69 1366 Z" fill="#000000" fill-rule="nonzero" fill-opacity="1" /><polyline clip-path="url(#clip330)" style="stroke:#000000; stroke-linecap:round; stroke-linejoin:round; stroke-width:4; stroke-opacity:1; fill:none" points="2317.2,1228.17 2317.2,319.753 "/>
<polyline clip-path="url(#clip330)" style="stroke:#000000; stroke-linecap:round; stroke-linejoin:round; stroke-width:4; stroke-opacity:1; fill:none" points="2317.2,1143.28 2336.1,1143.28 "/>
<polyline clip-path="url(#clip330)" style="stroke:#000000; stroke-linecap:round; stroke-linejoin:round; stroke-width:4; stroke-opacity:1; fill:none" points="2317.2,877.241 2336.1,877.241 "/>
<polyline clip-path="url(#clip330)" style="stroke:#000000; stroke-linecap:round; stroke-linejoin:round; stroke-width:4; stroke-opacity:1; fill:none" points="2317.2,611.199 2336.1,611.199 "/>
<polyline clip-path="url(#clip330)" style="stroke:#000000; stroke-linecap:round; stroke-linejoin:round; stroke-width:4; stroke-opacity:1; fill:none" points="2317.2,345.158 2336.1,345.158 "/>
<path clip-path="url(#clip330)" d="M2135.16 1143.73 L2164.84 1143.73 L2164.84 1147.67 L2135.16 1147.67 L2135.16 1143.73 Z" fill="#000000" fill-rule="nonzero" fill-opacity="1" /><path clip-path="url(#clip330)" d="M2175.74 1156.63 L2183.38 1156.63 L2183.38 1130.26 L2175.07 1131.93 L2175.07 1127.67 L2183.33 1126 L2188.01 1126 L2188.01 1156.63 L2195.65 1156.63 L2195.65 1160.56 L2175.74 1160.56 L2175.74 1156.63 Z" fill="#000000" fill-rule="nonzero" fill-opacity="1" /><path clip-path="url(#clip330)" d="M2205.14 1126 L2223.5 1126 L2223.5 1129.94 L2209.42 1129.94 L2209.42 1138.41 Q2210.44 1138.06 2211.46 1137.9 Q2212.48 1137.72 2213.5 1137.72 Q2219.28 1137.72 2222.66 1140.89 Q2226.04 1144.06 2226.04 1149.47 Q2226.04 1155.05 2222.57 1158.15 Q2219.1 1161.23 2212.78 1161.23 Q2210.6 1161.23 2208.33 1160.86 Q2206.09 1160.49 2203.68 1159.75 L2203.68 1155.05 Q2205.76 1156.19 2207.99 1156.74 Q2210.21 1157.3 2212.69 1157.3 Q2216.69 1157.3 2219.03 1155.19 Q2221.37 1153.09 2221.37 1149.47 Q2221.37 1145.86 2219.03 1143.76 Q2216.69 1141.65 2212.69 1141.65 Q2210.81 1141.65 2208.94 1142.07 Q2207.08 1142.48 2205.14 1143.36 L2205.14 1126 Z" fill="#000000" fill-rule="nonzero" fill-opacity="1" /><path clip-path="url(#clip330)" d="M2245.26 1129.08 Q2241.64 1129.08 2239.82 1132.65 Q2238.01 1136.19 2238.01 1143.32 Q2238.01 1150.42 2239.82 1153.99 Q2241.64 1157.53 2245.26 1157.53 Q2248.89 1157.53 2250.7 1153.99 Q2252.52 1150.42 2252.52 1143.32 Q2252.52 1136.19 2250.7 1132.65 Q2248.89 1129.08 2245.26 1129.08 M2245.26 1125.38 Q2251.07 1125.38 2254.12 1129.98 Q2257.2 1134.57 2257.2 1143.32 Q2257.2 1152.04 2254.12 1156.65 Q2251.07 1161.23 2245.26 1161.23 Q2239.45 1161.23 2236.37 1156.65 Q2233.31 1152.04 2233.31 1143.32 Q2233.31 1134.57 2236.37 1129.98 Q2239.45 1125.38 2245.26 1125.38 Z" fill="#000000" fill-rule="nonzero" fill-opacity="1" /><path clip-path="url(#clip330)" d="M2135.16 877.692 L2164.84 877.692 L2164.84 881.627 L2135.16 881.627 L2135.16 877.692 Z" fill="#000000" fill-rule="nonzero" fill-opacity="1" /><path clip-path="url(#clip330)" d="M2175.74 890.586 L2183.38 890.586 L2183.38 864.22 L2175.07 865.887 L2175.07 861.627 L2183.33 859.961 L2188.01 859.961 L2188.01 890.586 L2195.65 890.586 L2195.65 894.521 L2175.74 894.521 L2175.74 890.586 Z" fill="#000000" fill-rule="nonzero" fill-opacity="1" /><path clip-path="url(#clip330)" d="M2215.09 863.039 Q2211.48 863.039 2209.65 866.604 Q2207.85 870.146 2207.85 877.275 Q2207.85 884.382 2209.65 887.947 Q2211.48 891.488 2215.09 891.488 Q2218.73 891.488 2220.53 887.947 Q2222.36 884.382 2222.36 877.275 Q2222.36 870.146 2220.53 866.604 Q2218.73 863.039 2215.09 863.039 M2215.09 859.336 Q2220.9 859.336 2223.96 863.942 Q2227.04 868.525 2227.04 877.275 Q2227.04 886.002 2223.96 890.609 Q2220.9 895.192 2215.09 895.192 Q2209.28 895.192 2206.2 890.609 Q2203.15 886.002 2203.15 877.275 Q2203.15 868.525 2206.2 863.942 Q2209.28 859.336 2215.09 859.336 Z" fill="#000000" fill-rule="nonzero" fill-opacity="1" /><path clip-path="url(#clip330)" d="M2245.26 863.039 Q2241.64 863.039 2239.82 866.604 Q2238.01 870.146 2238.01 877.275 Q2238.01 884.382 2239.82 887.947 Q2241.64 891.488 2245.26 891.488 Q2248.89 891.488 2250.7 887.947 Q2252.52 884.382 2252.52 877.275 Q2252.52 870.146 2250.7 866.604 Q2248.89 863.039 2245.26 863.039 M2245.26 859.336 Q2251.07 859.336 2254.12 863.942 Q2257.2 868.525 2257.2 877.275 Q2257.2 886.002 2254.12 890.609 Q2251.07 895.192 2245.26 895.192 Q2239.45 895.192 2236.37 890.609 Q2233.31 886.002 2233.31 877.275 Q2233.31 868.525 2236.37 863.942 Q2239.45 859.336 2245.26 859.336 Z" fill="#000000" fill-rule="nonzero" fill-opacity="1" /><path clip-path="url(#clip330)" d="M2165.33 611.651 L2195 611.651 L2195 615.586 L2165.33 615.586 L2165.33 611.651 Z" fill="#000000" fill-rule="nonzero" fill-opacity="1" /><path clip-path="url(#clip330)" d="M2205.14 593.919 L2223.5 593.919 L2223.5 597.854 L2209.42 597.854 L2209.42 606.326 Q2210.44 605.979 2211.46 605.817 Q2212.48 605.632 2213.5 605.632 Q2219.28 605.632 2222.66 608.803 Q2226.04 611.975 2226.04 617.391 Q2226.04 622.97 2222.57 626.072 Q2219.1 629.15 2212.78 629.15 Q2210.6 629.15 2208.33 628.78 Q2206.09 628.41 2203.68 627.669 L2203.68 622.97 Q2205.76 624.104 2207.99 624.66 Q2210.21 625.215 2212.69 625.215 Q2216.69 625.215 2219.03 623.109 Q2221.37 621.002 2221.37 617.391 Q2221.37 613.78 2219.03 611.674 Q2216.69 609.567 2212.69 609.567 Q2210.81 609.567 2208.94 609.984 Q2207.08 610.401 2205.14 611.28 L2205.14 593.919 Z" fill="#000000" fill-rule="nonzero" fill-opacity="1" /><path clip-path="url(#clip330)" d="M2245.26 596.998 Q2241.64 596.998 2239.82 600.563 Q2238.01 604.104 2238.01 611.234 Q2238.01 618.34 2239.82 621.905 Q2241.64 625.447 2245.26 625.447 Q2248.89 625.447 2250.7 621.905 Q2252.52 618.34 2252.52 611.234 Q2252.52 604.104 2250.7 600.563 Q2248.89 596.998 2245.26 596.998 M2245.26 593.294 Q2251.07 593.294 2254.12 597.901 Q2257.2 602.484 2257.2 611.234 Q2257.2 619.961 2254.12 624.567 Q2251.07 629.15 2245.26 629.15 Q2239.45 629.15 2236.37 624.567 Q2233.31 619.961 2233.31 611.234 Q2233.31 602.484 2236.37 597.901 Q2239.45 593.294 2245.26 593.294 Z" fill="#000000" fill-rule="nonzero" fill-opacity="1" /><path clip-path="url(#clip330)" d="M2245.26 330.956 Q2241.64 330.956 2239.82 334.521 Q2238.01 338.063 2238.01 345.192 Q2238.01 352.299 2239.82 355.864 Q2241.64 359.405 2245.26 359.405 Q2248.89 359.405 2250.7 355.864 Q2252.52 352.299 2252.52 345.192 Q2252.52 338.063 2250.7 334.521 Q2248.89 330.956 2245.26 330.956 M2245.26 327.253 Q2251.07 327.253 2254.12 331.859 Q2257.2 336.442 2257.2 345.192 Q2257.2 353.919 2254.12 358.526 Q2251.07 363.109 2245.26 363.109 Q2239.45 363.109 2236.37 358.526 Q2233.31 353.919 2233.31 345.192 Q2233.31 336.442 2236.37 331.859 Q2239.45 327.253 2245.26 327.253 Z" fill="#000000" fill-rule="nonzero" fill-opacity="1" /><path clip-path="url(#clip330)" d="M2018.67 1025.84 L2036.53 1025.84 L2036.53 1017.75 Q2036.53 1013.26 2034.2 1010.81 Q2031.88 1008.36 2027.58 1008.36 Q2023.32 1008.36 2020.99 1010.81 Q2018.67 1013.26 2018.67 1017.75 L2018.67 1025.84 M2013.39 1032.27 L2013.39 1017.75 Q2013.39 1009.76 2017.02 1005.69 Q2020.61 1001.58 2027.58 1001.58 Q2034.62 1001.58 2038.21 1005.69 Q2041.81 1009.76 2041.81 1017.75 L2041.81 1025.84 L2060.91 1025.84 L2060.91 1032.27 L2013.39 1032.27 Z" fill="#000000" fill-rule="nonzero" fill-opacity="1" /><path clip-path="url(#clip330)" d="M2039.39 963.58 L2060.91 963.58 L2060.91 969.436 L2039.58 969.436 Q2034.52 969.436 2032.01 971.409 Q2029.49 973.383 2029.49 977.329 Q2029.49 982.072 2032.52 984.809 Q2035.54 987.546 2040.76 987.546 L2060.91 987.546 L2060.91 993.435 L2011.38 993.435 L2011.38 987.546 L2030.8 987.546 Q2027.58 985.446 2025.99 982.613 Q2024.4 979.748 2024.4 976.024 Q2024.4 969.882 2028.22 966.731 Q2032.01 963.58 2039.39 963.58 Z" fill="#000000" fill-rule="nonzero" fill-opacity="1" /><path clip-path="url(#clip330)" d="M2042.99 935.698 Q2042.99 942.795 2044.61 945.533 Q2046.23 948.27 2050.15 948.27 Q2053.27 948.27 2055.11 946.233 Q2056.93 944.164 2056.93 940.631 Q2056.93 935.761 2053.49 932.833 Q2050.02 929.873 2044.29 929.873 L2042.99 929.873 L2042.99 935.698 M2040.57 924.017 L2060.91 924.017 L2060.91 929.873 L2055.5 929.873 Q2058.74 931.878 2060.3 934.87 Q2061.83 937.862 2061.83 942.191 Q2061.83 947.665 2058.77 950.912 Q2055.69 954.126 2050.53 954.126 Q2044.52 954.126 2041.46 950.116 Q2038.4 946.074 2038.4 938.085 L2038.4 929.873 L2037.83 929.873 Q2033.79 929.873 2031.59 932.547 Q2029.37 935.188 2029.37 939.995 Q2029.37 943.05 2030.1 945.947 Q2030.83 948.843 2032.29 951.516 L2026.88 951.516 Q2025.64 948.302 2025.04 945.278 Q2024.4 942.254 2024.4 939.39 Q2024.4 931.655 2028.41 927.836 Q2032.42 924.017 2040.57 924.017 Z" fill="#000000" fill-rule="nonzero" fill-opacity="1" /><path clip-path="url(#clip330)" d="M2026.31 889.228 L2031.85 889.228 Q2030.57 891.711 2029.94 894.384 Q2029.3 897.058 2029.3 899.922 Q2029.3 904.283 2030.64 906.479 Q2031.98 908.643 2034.65 908.643 Q2036.69 908.643 2037.86 907.084 Q2039.01 905.524 2040.06 900.814 L2040.51 898.808 Q2041.84 892.57 2044.29 889.96 Q2046.71 887.318 2051.07 887.318 Q2056.04 887.318 2058.93 891.265 Q2061.83 895.18 2061.83 902.055 Q2061.83 904.92 2061.26 908.039 Q2060.72 911.126 2059.6 914.564 L2053.55 914.564 Q2055.24 911.317 2056.1 908.166 Q2056.93 905.015 2056.93 901.928 Q2056.93 897.79 2055.53 895.562 Q2054.1 893.334 2051.52 893.334 Q2049.13 893.334 2047.86 894.957 Q2046.58 896.549 2045.41 901.991 L2044.93 904.028 Q2043.78 909.471 2041.43 911.89 Q2039.04 914.309 2034.9 914.309 Q2029.87 914.309 2027.14 910.744 Q2024.4 907.179 2024.4 900.623 Q2024.4 897.376 2024.88 894.512 Q2025.35 891.647 2026.31 889.228 Z" fill="#000000" fill-rule="nonzero" fill-opacity="1" /><path clip-path="url(#clip330)" d="M2041.62 847.501 L2044.48 847.501 L2044.48 874.428 Q2050.53 874.046 2053.71 870.799 Q2056.87 867.521 2056.87 861.696 Q2056.87 858.323 2056.04 855.172 Q2055.21 851.989 2053.55 848.869 L2059.09 848.869 Q2060.43 852.021 2061.13 855.331 Q2061.83 858.641 2061.83 862.046 Q2061.83 870.577 2056.87 875.574 Q2051.9 880.539 2043.43 880.539 Q2034.68 880.539 2029.56 875.828 Q2024.4 871.086 2024.4 863.065 Q2024.4 855.872 2029.05 851.702 Q2033.66 847.501 2041.62 847.501 M2039.9 853.357 Q2035.09 853.421 2032.23 856.063 Q2029.37 858.673 2029.37 863.001 Q2029.37 867.903 2032.13 870.863 Q2034.9 873.791 2039.93 874.237 L2039.9 853.357 Z" fill="#000000" fill-rule="nonzero" fill-opacity="1" /><path clip-path="url(#clip330)" d="M2011.45 803.1 Q2018.77 807.365 2025.93 809.434 Q2033.09 811.503 2040.44 811.503 Q2047.79 811.503 2055.02 809.434 Q2062.21 807.333 2069.5 803.1 L2069.5 808.193 Q2062.02 812.967 2054.8 815.354 Q2047.57 817.709 2040.44 817.709 Q2033.34 817.709 2026.15 815.354 Q2018.96 812.999 2011.45 808.193 L2011.45 803.1 Z" fill="#000000" fill-rule="nonzero" fill-opacity="1" /><path clip-path="url(#clip330)" d="M2030.67 768.28 L2011.38 768.28 L2011.38 762.423 L2060.91 762.423 L2060.91 768.28 L2055.56 768.28 Q2058.74 770.126 2060.3 772.958 Q2061.83 775.759 2061.83 779.706 Q2061.83 786.167 2056.67 790.241 Q2051.52 794.284 2043.12 794.284 Q2034.71 794.284 2029.56 790.241 Q2024.4 786.167 2024.4 779.706 Q2024.4 775.759 2025.96 772.958 Q2027.49 770.126 2030.67 768.28 M2043.12 788.236 Q2049.58 788.236 2053.27 785.594 Q2056.93 782.921 2056.93 778.274 Q2056.93 773.627 2053.27 770.953 Q2049.58 768.28 2043.12 768.28 Q2036.65 768.28 2032.99 770.953 Q2029.3 773.627 2029.3 778.274 Q2029.3 782.921 2032.99 785.594 Q2036.65 788.236 2043.12 788.236 Z" fill="#000000" fill-rule="nonzero" fill-opacity="1" /><path clip-path="url(#clip330)" d="M2041.62 719.868 L2044.48 719.868 L2044.48 746.795 Q2050.53 746.413 2053.71 743.167 Q2056.87 739.889 2056.87 734.064 Q2056.87 730.69 2056.04 727.539 Q2055.21 724.356 2053.55 721.237 L2059.09 721.237 Q2060.43 724.388 2061.13 727.698 Q2061.83 731.008 2061.83 734.414 Q2061.83 742.944 2056.87 747.941 Q2051.9 752.906 2043.43 752.906 Q2034.68 752.906 2029.56 748.196 Q2024.4 743.453 2024.4 735.433 Q2024.4 728.239 2029.05 724.07 Q2033.66 719.868 2041.62 719.868 M2039.9 725.725 Q2035.09 725.789 2032.23 728.43 Q2029.37 731.04 2029.37 735.369 Q2029.37 740.271 2032.13 743.231 Q2034.9 746.159 2039.93 746.604 L2039.9 725.725 Z" fill="#000000" fill-rule="nonzero" fill-opacity="1" /><path clip-path="url(#clip330)" d="M2042.67 686.799 Q2036.3 686.799 2032.8 689.44 Q2029.3 692.05 2029.3 696.793 Q2029.3 701.503 2032.8 704.145 Q2036.3 706.755 2042.67 706.755 Q2049 706.755 2052.5 704.145 Q2056.01 701.503 2056.01 696.793 Q2056.01 692.05 2052.5 689.44 Q2049 686.799 2042.67 686.799 M2056.48 680.942 Q2065.59 680.942 2070.01 684.984 Q2074.47 689.027 2074.47 697.366 Q2074.47 700.453 2073.99 703.19 Q2073.54 705.928 2072.59 708.506 L2066.89 708.506 Q2068.29 705.928 2068.96 703.413 Q2069.63 700.899 2069.63 698.289 Q2069.63 692.528 2066.6 689.663 Q2063.61 686.799 2057.53 686.799 L2054.64 686.799 Q2057.79 688.613 2059.35 691.446 Q2060.91 694.278 2060.91 698.225 Q2060.91 704.782 2055.91 708.792 Q2050.91 712.802 2042.67 712.802 Q2034.39 712.802 2029.4 708.792 Q2024.4 704.782 2024.4 698.225 Q2024.4 694.278 2025.96 691.446 Q2027.52 688.613 2030.67 686.799 L2025.26 686.799 L2025.26 680.942 L2056.48 680.942 Z" fill="#000000" fill-rule="nonzero" fill-opacity="1" /><path clip-path="url(#clip330)" d="M2030.73 648.222 Q2030.16 649.209 2029.91 650.387 Q2029.62 651.533 2029.62 652.933 Q2029.62 657.898 2032.87 660.572 Q2036.08 663.214 2042.13 663.214 L2060.91 663.214 L2060.91 669.102 L2025.26 669.102 L2025.26 663.214 L2030.8 663.214 Q2027.55 661.368 2025.99 658.408 Q2024.4 655.447 2024.4 651.214 Q2024.4 650.61 2024.5 649.877 Q2024.56 649.145 2024.72 648.254 L2030.73 648.222 Z" fill="#000000" fill-rule="nonzero" fill-opacity="1" /><path clip-path="url(#clip330)" d="M2041.62 613.02 L2044.48 613.02 L2044.48 639.947 Q2050.53 639.565 2053.71 636.319 Q2056.87 633.04 2056.87 627.216 Q2056.87 623.842 2056.04 620.691 Q2055.21 617.508 2053.55 614.389 L2059.09 614.389 Q2060.43 617.54 2061.13 620.85 Q2061.83 624.16 2061.83 627.566 Q2061.83 636.096 2056.87 641.093 Q2051.9 646.058 2043.43 646.058 Q2034.68 646.058 2029.56 641.347 Q2024.4 636.605 2024.4 628.584 Q2024.4 621.391 2029.05 617.221 Q2033.66 613.02 2041.62 613.02 M2039.9 618.876 Q2035.09 618.94 2032.23 621.582 Q2029.37 624.192 2029.37 628.521 Q2029.37 633.422 2032.13 636.382 Q2034.9 639.31 2039.93 639.756 L2039.9 618.876 Z" fill="#000000" fill-rule="nonzero" fill-opacity="1" /><path clip-path="url(#clip330)" d="M2041.62 572.916 L2044.48 572.916 L2044.48 599.843 Q2050.53 599.461 2053.71 596.215 Q2056.87 592.936 2056.87 587.112 Q2056.87 583.738 2056.04 580.587 Q2055.21 577.404 2053.55 574.285 L2059.09 574.285 Q2060.43 577.436 2061.13 580.746 Q2061.83 584.056 2061.83 587.462 Q2061.83 595.992 2056.87 600.989 Q2051.9 605.954 2043.43 605.954 Q2034.68 605.954 2029.56 601.243 Q2024.4 596.501 2024.4 588.48 Q2024.4 581.287 2029.05 577.117 Q2033.66 572.916 2041.62 572.916 M2039.9 578.773 Q2035.09 578.836 2032.23 581.478 Q2029.37 584.088 2029.37 588.417 Q2029.37 593.318 2032.13 596.278 Q2034.9 599.206 2039.93 599.652 L2039.9 578.773 Z" fill="#000000" fill-rule="nonzero" fill-opacity="1" /><path clip-path="url(#clip330)" d="M2026.31 540.578 L2031.85 540.578 Q2030.57 543.061 2029.94 545.735 Q2029.3 548.408 2029.3 551.273 Q2029.3 555.633 2030.64 557.829 Q2031.98 559.994 2034.65 559.994 Q2036.69 559.994 2037.86 558.434 Q2039.01 556.875 2040.06 552.164 L2040.51 550.159 Q2041.84 543.92 2044.29 541.31 Q2046.71 538.669 2051.07 538.669 Q2056.04 538.669 2058.93 542.615 Q2061.83 546.53 2061.83 553.405 Q2061.83 556.27 2061.26 559.389 Q2060.72 562.476 2059.6 565.914 L2053.55 565.914 Q2055.24 562.667 2056.1 559.516 Q2056.93 556.365 2056.93 553.278 Q2056.93 549.14 2055.53 546.912 Q2054.1 544.684 2051.52 544.684 Q2049.13 544.684 2047.86 546.307 Q2046.58 547.899 2045.41 553.342 L2044.93 555.379 Q2043.78 560.821 2041.43 563.24 Q2039.04 565.659 2034.9 565.659 Q2029.87 565.659 2027.14 562.094 Q2024.4 558.53 2024.4 551.973 Q2024.4 548.726 2024.88 545.862 Q2025.35 542.997 2026.31 540.578 Z" fill="#000000" fill-rule="nonzero" fill-opacity="1" /><path clip-path="url(#clip330)" d="M2011.45 530.266 L2011.45 525.173 Q2018.96 520.399 2026.15 518.044 Q2033.34 515.657 2040.44 515.657 Q2047.57 515.657 2054.8 518.044 Q2062.02 520.399 2069.5 525.173 L2069.5 530.266 Q2062.21 526.033 2055.02 523.964 Q2047.79 521.863 2040.44 521.863 Q2033.09 521.863 2025.93 523.964 Q2018.77 526.033 2011.45 530.266 Z" fill="#000000" fill-rule="nonzero" fill-opacity="1" /><path clip-path="url(#clip330)" d="M2743.26 43.6931 L2743.26 65.8515 L2756.38 65.8515 Q2762.99 65.8515 2766.15 63.1374 Q2769.35 60.3828 2769.35 54.752 Q2769.35 49.0808 2766.15 46.4072 Q2762.99 43.6931 2756.38 43.6931 L2743.26 43.6931 M2743.26 18.8205 L2743.26 37.0496 L2755.37 37.0496 Q2761.37 37.0496 2764.28 34.8216 Q2767.24 32.5531 2767.24 27.935 Q2767.24 23.3575 2764.28 21.089 Q2761.37 18.8205 2755.37 18.8205 L2743.26 18.8205 M2735.08 12.096 L2755.98 12.096 Q2765.34 12.096 2770.4 15.9849 Q2775.46 19.8737 2775.46 27.0438 Q2775.46 32.5936 2772.87 35.8748 Q2770.28 39.156 2765.26 39.9662 Q2771.29 41.2625 2774.61 45.3944 Q2777.98 49.4858 2777.98 55.6432 Q2777.98 63.745 2772.47 68.1605 Q2766.96 72.576 2756.79 72.576 L2735.08 72.576 L2735.08 12.096 Z" fill="#000000" fill-rule="nonzero" fill-opacity="1" /><path clip-path="url(#clip330)" d="M2809.25 32.4315 Q2803.25 32.4315 2799.77 37.1306 Q2796.29 41.7891 2796.29 49.9314 Q2796.29 58.0738 2799.73 62.7728 Q2803.21 67.4314 2809.25 67.4314 Q2815.2 67.4314 2818.69 62.7323 Q2822.17 58.0333 2822.17 49.9314 Q2822.17 41.8701 2818.69 37.1711 Q2815.2 32.4315 2809.25 32.4315 M2809.25 26.1121 Q2818.97 26.1121 2824.52 32.4315 Q2830.07 38.7509 2830.07 49.9314 Q2830.07 61.0714 2824.52 67.4314 Q2818.97 73.7508 2809.25 73.7508 Q2799.49 73.7508 2793.94 67.4314 Q2788.43 61.0714 2788.43 49.9314 Q2788.43 38.7509 2793.94 32.4315 Q2799.49 26.1121 2809.25 26.1121 Z" fill="#000000" fill-rule="nonzero" fill-opacity="1" /><path clip-path="url(#clip330)" d="M2872.28 34.0924 L2872.28 9.54393 L2879.73 9.54393 L2879.73 72.576 L2872.28 72.576 L2872.28 65.7705 Q2869.93 69.8214 2866.33 71.8063 Q2862.76 73.7508 2857.74 73.7508 Q2849.52 73.7508 2844.33 67.1883 Q2839.19 60.6258 2839.19 49.9314 Q2839.19 39.2371 2844.33 32.6746 Q2849.52 26.1121 2857.74 26.1121 Q2862.76 26.1121 2866.33 28.0971 Q2869.93 30.0415 2872.28 34.0924 M2846.88 49.9314 Q2846.88 58.1548 2850.24 62.8538 Q2853.65 67.5124 2859.56 67.5124 Q2865.48 67.5124 2868.88 62.8538 Q2872.28 58.1548 2872.28 49.9314 Q2872.28 41.7081 2868.88 37.0496 Q2865.48 32.3505 2859.56 32.3505 Q2853.65 32.3505 2850.24 37.0496 Q2846.88 41.7081 2846.88 49.9314 Z" fill="#000000" fill-rule="nonzero" fill-opacity="1" /><path clip-path="url(#clip330)" d="M2933.9 48.0275 L2933.9 51.6733 L2899.62 51.6733 Q2900.11 59.3701 2904.24 63.421 Q2908.42 67.4314 2915.83 67.4314 Q2920.12 67.4314 2924.13 66.3781 Q2928.18 65.3249 2932.15 63.2184 L2932.15 70.267 Q2928.14 71.9684 2923.93 72.8596 Q2919.72 73.7508 2915.38 73.7508 Q2904.53 73.7508 2898.17 67.4314 Q2891.85 61.1119 2891.85 50.3365 Q2891.85 39.1965 2897.84 32.6746 Q2903.88 26.1121 2914.09 26.1121 Q2923.24 26.1121 2928.55 32.0264 Q2933.9 37.9003 2933.9 48.0275 M2926.44 45.84 Q2926.36 39.7232 2923 36.0774 Q2919.68 32.4315 2914.17 32.4315 Q2907.93 32.4315 2904.16 35.9558 Q2900.43 39.4801 2899.87 45.8805 L2926.44 45.84 Z" fill="#000000" fill-rule="nonzero" fill-opacity="1" /><path clip-path="url(#clip330)" d="M2981.01 18.8205 L2981.01 41.5461 L2991.3 41.5461 Q2997.01 41.5461 3000.13 38.5889 Q3003.25 35.6318 3003.25 30.163 Q3003.25 24.7348 3000.13 21.7777 Q2997.01 18.8205 2991.3 18.8205 L2981.01 18.8205 M2972.82 12.096 L2991.3 12.096 Q3001.46 12.096 3006.65 16.714 Q3011.88 21.2916 3011.88 30.163 Q3011.88 39.1155 3006.65 43.6931 Q3001.46 48.2706 2991.3 48.2706 L2981.01 48.2706 L2981.01 72.576 L2972.82 72.576 L2972.82 12.096 Z" fill="#000000" fill-rule="nonzero" fill-opacity="1" /><path clip-path="url(#clip330)" d="M3060.24 45.1919 L3060.24 72.576 L3052.79 72.576 L3052.79 45.4349 Q3052.79 38.994 3050.28 35.7938 Q3047.77 32.5936 3042.74 32.5936 Q3036.71 32.5936 3033.22 36.4419 Q3029.74 40.2903 3029.74 46.9338 L3029.74 72.576 L3022.25 72.576 L3022.25 9.54393 L3029.74 9.54393 L3029.74 34.2544 Q3032.41 30.163 3036.02 28.1376 Q3039.66 26.1121 3044.4 26.1121 Q3052.22 26.1121 3056.23 30.9732 Q3060.24 35.7938 3060.24 45.1919 Z" fill="#000000" fill-rule="nonzero" fill-opacity="1" /><path clip-path="url(#clip330)" d="M3095.73 49.7694 Q3086.7 49.7694 3083.21 51.8354 Q3079.73 53.9013 3079.73 58.8839 Q3079.73 62.8538 3082.32 65.2034 Q3084.95 67.5124 3089.45 67.5124 Q3095.65 67.5124 3099.37 63.1374 Q3103.14 58.7219 3103.14 51.4303 L3103.14 49.7694 L3095.73 49.7694 M3110.6 46.6907 L3110.6 72.576 L3103.14 72.576 L3103.14 65.6895 Q3100.59 69.8214 3096.78 71.8063 Q3092.97 73.7508 3087.47 73.7508 Q3080.5 73.7508 3076.37 69.8619 Q3072.27 65.9325 3072.27 59.3701 Q3072.27 51.7138 3077.38 47.825 Q3082.52 43.9361 3092.69 43.9361 L3103.14 43.9361 L3103.14 43.2069 Q3103.14 38.0623 3099.74 35.2672 Q3096.38 32.4315 3090.26 32.4315 Q3086.37 32.4315 3082.69 33.3632 Q3079 34.295 3075.6 36.1584 L3075.6 29.2718 Q3079.69 27.692 3083.54 26.9223 Q3087.38 26.1121 3091.03 26.1121 Q3100.87 26.1121 3105.73 31.2163 Q3110.6 36.3204 3110.6 46.6907 Z" fill="#000000" fill-rule="nonzero" fill-opacity="1" /><path clip-path="url(#clip330)" d="M3154.87 28.5427 L3154.87 35.5912 Q3151.71 33.9709 3148.31 33.1607 Q3144.91 32.3505 3141.26 32.3505 Q3135.71 32.3505 3132.92 34.0519 Q3130.16 35.7533 3130.16 39.156 Q3130.16 41.7486 3132.15 43.2475 Q3134.13 44.7058 3140.13 46.0426 L3142.68 46.6097 Q3150.62 48.3111 3153.94 51.4303 Q3157.3 54.509 3157.3 60.0587 Q3157.3 66.3781 3152.28 70.0644 Q3147.3 73.7508 3138.55 73.7508 Q3134.9 73.7508 3130.93 73.0216 Q3127 72.3329 3122.63 70.9151 L3122.63 63.2184 Q3126.76 65.3654 3130.77 66.4591 Q3134.78 67.5124 3138.71 67.5124 Q3143.98 67.5124 3146.81 65.73 Q3149.65 63.9071 3149.65 60.6258 Q3149.65 57.5877 3147.58 55.9673 Q3145.56 54.3469 3138.63 52.8481 L3136.04 52.2405 Q3129.11 50.7821 3126.03 47.7845 Q3122.95 44.7463 3122.95 39.4801 Q3122.95 33.0797 3127.49 29.5959 Q3132.03 26.1121 3140.37 26.1121 Q3144.5 26.1121 3148.15 26.7198 Q3151.79 27.3274 3154.87 28.5427 Z" fill="#000000" fill-rule="nonzero" fill-opacity="1" /><path clip-path="url(#clip330)" d="M3207.98 48.0275 L3207.98 51.6733 L3173.71 51.6733 Q3174.19 59.3701 3178.33 63.421 Q3182.5 67.4314 3189.91 67.4314 Q3194.21 67.4314 3198.22 66.3781 Q3202.27 65.3249 3206.24 63.2184 L3206.24 70.267 Q3202.23 71.9684 3198.01 72.8596 Q3193.8 73.7508 3189.47 73.7508 Q3178.61 73.7508 3172.25 67.4314 Q3165.93 61.1119 3165.93 50.3365 Q3165.93 39.1965 3171.93 32.6746 Q3177.96 26.1121 3188.17 26.1121 Q3197.33 26.1121 3202.63 32.0264 Q3207.98 37.9003 3207.98 48.0275 M3200.53 45.84 Q3200.44 39.7232 3197.08 36.0774 Q3193.76 32.4315 3188.25 32.4315 Q3182.01 32.4315 3178.25 35.9558 Q3174.52 39.4801 3173.95 45.8805 L3200.53 45.84 Z" fill="#000000" fill-rule="nonzero" fill-opacity="1" /><path clip-path="url(#clip330)" d="M3255.09 18.8205 L3255.09 41.5461 L3265.38 41.5461 Q3271.09 41.5461 3274.21 38.5889 Q3277.33 35.6318 3277.33 30.163 Q3277.33 24.7348 3274.21 21.7777 Q3271.09 18.8205 3265.38 18.8205 L3255.09 18.8205 M3246.91 12.096 L3265.38 12.096 Q3275.55 12.096 3280.73 16.714 Q3285.96 21.2916 3285.96 30.163 Q3285.96 39.1155 3280.73 43.6931 Q3275.55 48.2706 3265.38 48.2706 L3255.09 48.2706 L3255.09 72.576 L3246.91 72.576 L3246.91 12.096 Z" fill="#000000" fill-rule="nonzero" fill-opacity="1" /><path clip-path="url(#clip330)" d="M3296.61 9.54393 L3304.07 9.54393 L3304.07 72.576 L3296.61 72.576 L3296.61 9.54393 Z" fill="#000000" fill-rule="nonzero" fill-opacity="1" /><path clip-path="url(#clip330)" d="M3337.24 32.4315 Q3331.25 32.4315 3327.76 37.1306 Q3324.28 41.7891 3324.28 49.9314 Q3324.28 58.0738 3327.72 62.7728 Q3331.21 67.4314 3337.24 67.4314 Q3343.2 67.4314 3346.68 62.7323 Q3350.17 58.0333 3350.17 49.9314 Q3350.17 41.8701 3346.68 37.1711 Q3343.2 32.4315 3337.24 32.4315 M3337.24 26.1121 Q3346.97 26.1121 3352.52 32.4315 Q3358.07 38.7509 3358.07 49.9314 Q3358.07 61.0714 3352.52 67.4314 Q3346.97 73.7508 3337.24 73.7508 Q3327.48 73.7508 3321.93 67.4314 Q3316.42 61.0714 3316.42 49.9314 Q3316.42 38.7509 3321.93 32.4315 Q3327.48 26.1121 3337.24 26.1121 Z" fill="#000000" fill-rule="nonzero" fill-opacity="1" /><path clip-path="url(#clip330)" d="M3377.79 14.324 L3377.79 27.2059 L3393.15 27.2059 L3393.15 32.9987 L3377.79 32.9987 L3377.79 57.6282 Q3377.79 63.1779 3379.29 64.7578 Q3380.83 66.3376 3385.49 66.3376 L3393.15 66.3376 L3393.15 72.576 L3385.49 72.576 Q3376.86 72.576 3373.58 69.3758 Q3370.3 66.1351 3370.3 57.6282 L3370.3 32.9987 L3364.83 32.9987 L3364.83 27.2059 L3370.3 27.2059 L3370.3 14.324 L3377.79 14.324 Z" fill="#000000" fill-rule="nonzero" fill-opacity="1" /><polyline clip-path="url(#clip333)" style="stroke:#009af9; stroke-linecap:round; stroke-linejoin:round; stroke-width:4; stroke-opacity:1; fill:none" points="2359.48,345.462 2362.3,345.468 2365.13,345.474 2367.95,345.48 2370.77,345.486 2373.6,345.492 2376.42,345.498 2379.25,345.505 2382.07,345.511 2384.9,345.518 2387.72,345.524 2390.54,345.531 2393.37,345.538 2396.19,345.545 2399.02,345.552 2401.84,345.56 2404.66,345.567 2407.49,345.575 2410.31,345.583 2413.14,345.591 2415.96,345.599 2418.79,345.607 2421.61,345.615 2424.43,345.624 2427.26,345.633 2430.08,345.641 2432.91,345.65 2435.73,345.66 2438.55,345.669 2441.38,345.679 2444.2,345.688 2447.03,345.698 2449.85,345.708 2452.68,345.719 2455.5,345.729 2458.32,345.74 2461.15,345.75 2463.97,345.762 2466.8,345.773 2469.62,345.784 2472.45,345.796 2475.27,345.808 2478.09,345.82 2480.92,345.832 2483.74,345.845 2486.57,345.858 2489.39,345.871 2492.21,345.884 2495.04,345.898 2497.86,345.912 2500.69,345.926 2503.51,345.94 2506.34,345.955 2509.16,345.97 2511.98,345.985 2514.81,346 2517.63,346.016 2520.46,346.032 2523.28,346.048 2526.1,346.065 2528.93,346.082 2531.75,346.099 2534.58,346.117 2537.4,346.135 2540.23,346.153 2543.05,346.172 2545.87,346.191 2548.7,346.21 2551.52,346.23 2554.35,346.25 2557.17,346.27 2559.99,346.291 2562.82,346.312 2565.64,346.334 2568.47,346.356 2571.29,346.378 2574.12,346.401 2576.94,346.425 2579.76,346.448 2582.59,346.473 2585.41,346.497 2588.24,346.522 2591.06,346.548 2593.89,346.574 2596.71,346.601 2599.53,346.628 2602.36,346.656 2605.18,346.684 2608.01,346.713 2610.83,346.742 2613.65,346.772 2616.48,346.802 2619.3,346.833 2622.13,346.865 2624.95,346.897 2627.78,346.93 2630.6,346.963 2633.42,346.997 2636.25,347.032 2639.07,347.067 2641.9,347.104 2644.72,347.14 2647.54,347.178 2650.37,347.216 2653.19,347.255 2656.02,347.295 2658.84,347.336 2661.67,347.377 2664.49,347.419 2667.31,347.462 2670.14,347.506 2672.96,347.551 2675.79,347.597 2678.61,347.643 2681.43,347.691 2684.26,347.739 2687.08,347.789 2689.91,347.839 2692.73,347.891 2695.56,347.943 2698.38,347.997 2701.2,348.052 2704.03,348.107 2706.85,348.164 2709.68,348.223 2712.5,348.282 2715.32,348.343 2718.15,348.404 2720.97,348.468 2723.8,348.532 2726.62,348.598 2729.45,348.665 2732.27,348.734 2735.09,348.804 2737.92,348.876 2740.74,348.949 2743.57,349.024 2746.39,349.1 2749.22,349.178 2752.04,349.258 2754.86,349.34 2757.69,349.423 2760.51,349.509 2763.34,349.596 2766.16,349.685 2768.98,349.777 2771.81,349.87 2774.63,349.966 2777.46,350.063 2780.28,350.164 2783.11,350.266 2785.93,350.371 2788.75,350.479 2791.58,350.589 2794.4,350.702 2797.23,350.817 2800.05,350.936 2802.87,351.057 2805.7,351.182 2808.52,351.31 2811.35,351.441 2814.17,351.576 2817,351.714 2819.82,351.856 2822.64,352.001 2825.47,352.151 2828.29,352.304 2831.12,352.462 2833.94,352.625 2836.76,352.792 2839.59,352.964 2842.41,353.141 2845.24,353.323 2848.06,353.511 2850.89,353.704 2853.71,353.903 2856.53,354.109 2859.36,354.32 2862.18,354.539 2865.01,354.765 2867.83,354.998 2870.66,355.239 2873.48,355.488 2876.3,355.746 2879.13,356.012 2881.95,356.288 2884.78,356.574 2887.6,356.871 2890.42,357.178 2893.25,357.497 2896.07,357.828 2898.9,358.172 2901.72,358.53 2904.55,358.902 2907.37,359.289 2910.19,359.693 2913.02,360.113 2915.84,360.552 2918.67,361.01 2921.49,361.489 2924.31,361.99 2927.14,362.514 2929.96,363.062 2932.79,363.638 2935.61,364.242 2938.44,364.876 2941.26,365.543 2944.08,366.246 2946.91,366.986 2949.73,367.767 2952.56,368.592 2955.38,369.464 2958.2,370.388 2961.03,371.367 2963.85,372.408 2966.68,373.514 2969.5,374.692 2972.33,375.949 2975.15,377.292 2977.97,378.731 2980.8,380.273 2983.62,381.931 2986.45,383.717 2989.27,385.644 2992.09,387.73 2994.92,389.993 2997.74,392.455 3000.57,395.14 3003.39,398.079 3006.22,401.307 3009.04,404.864 3011.86,408.799 3014.69,413.172 3017.51,418.053 3020.34,423.528 3023.16,429.703 3025.99,436.708 3028.81,444.705 3031.63,453.899 3034.46,464.545 3037.28,476.971 3040.11,491.592 3042.93,508.935 3045.75,529.66 3048.58,554.57 3051.4,584.578 3054.23,620.581 3057.05,663.168 3059.88,712.119 3062.7,765.869 3065.52,821.423 3068.35,875.153 3071.17,924.063 3074,966.59 3076.82,1002.51 3079.64,1032.42 3082.47,1057.21 3085.29,1077.79 3088.12,1094.97 3090.94,1109.41 3093.77,1121.64 3096.59,1132.06 3099.41,1141.01 3102.24,1148.74 3105.06,1155.46 3107.89,1161.33 3110.71,1166.48 3113.53,1171.02 3116.36,1175.02 3119.18,1178.57 3122.01,1181.71 3124.83,1184.51 3127.66,1187 3130.48,1189.21 3133.3,1191.17 3136.13,1192.92 3138.95,1194.47 3141.78,1195.83 3144.6,1197.03 3147.43,1198.09 3150.25,1199 3153.07,1199.79 3155.9,1200.46 3158.72,1201.02 3161.55,1201.48 3164.37,1201.84 3167.19,1202.12 3170.02,1202.31 3172.84,1202.42 3175.67,1202.46 3178.49,1202.42 3181.32,1202.32 3184.14,1202.15 3186.96,1201.92 3189.79,1201.63 3192.61,1201.29 3195.44,1200.88 3198.26,1200.43 3201.08,1199.92 3203.91,1199.36 3206.73,1198.75 3209.56,1198.1 3212.38,1197.39 3215.21,1196.65 3218.03,1195.85 3220.85,1195.02 3223.68,1194.14 3226.5,1193.22 3229.33,1192.26 3232.15,1191.25 3234.97,1190.21 3237.8,1189.13 3240.62,1188 3243.45,1186.84 3246.27,1185.64 3249.1,1184.41 3251.92,1183.13 3254.74,1181.82 3257.57,1180.47 3260.39,1179.09 3263.22,1177.67 3266.04,1176.21 3268.87,1174.72 3271.69,1173.19 3274.51,1171.63 3277.34,1170.03 3280.16,1168.4 3282.99,1166.73 3285.81,1165.03 3288.63,1163.3 3291.46,1161.53 3294.28,1159.73 3297.11,1157.9 3299.93,1156.03 3302.76,1154.14 3305.58,1152.21 3308.4,1150.25 3311.23,1148.26 3314.05,1146.23 3316.88,1144.18 3319.7,1142.1 3322.52,1139.99 3325.35,1137.85 3328.17,1135.68 3331,1133.48 3333.82,1131.26 3336.65,1129.01 3339.47,1126.73 3342.29,1124.43 3345.12,1122.1 3347.94,1119.75 3350.77,1117.38 3353.59,1114.98 3356.41,1112.56 3359.24,1110.11 3362.06,1107.65 3364.89,1105.16 3367.71,1102.66 3370.54,1100.14 3373.36,1097.6 3376.18,1095.04 3379.01,1092.47 3381.83,1089.88 3384.66,1087.28 3387.48,1084.66 3390.3,1082.04 3393.13,1079.4 3395.95,1076.75 3398.78,1074.09 3401.6,1071.42 3404.43,1068.74 3407.25,1066.06 3410.07,1063.37 3412.9,1060.68 3415.72,1057.99 3418.55,1055.29 3421.37,1052.59 3424.2,1049.89 3427.02,1047.19 3429.84,1044.49 3432.67,1041.8 3435.49,1039.1 3438.32,1036.42 3441.14,1033.73 3443.96,1031.06 3446.79,1028.39 3449.61,1025.73 3452.44,1023.08 3455.26,1020.43 3458.09,1017.8 3460.91,1015.18 3463.73,1012.58 3466.56,1009.98 3469.38,1007.4 3472.21,1004.84 3475.03,1002.29 3477.85,999.757 3480.68,997.241 3483.5,994.742 3486.33,992.262 3489.15,989.8 3491.98,987.357 3494.8,984.934 3497.62,982.532 3500.45,980.15 3503.27,977.79 3506.1,975.451 3508.92,973.134 3511.74,970.84 3514.57,968.568 3517.39,966.32 3520.22,964.095 3523.04,961.894 3525.87,959.716 3528.69,957.563 3531.51,955.434 3534.34,953.33 3537.16,951.25 3539.99,949.195 3542.81,947.164 3545.64,945.159 3548.46,943.179 3551.28,941.224 3554.11,939.294 3556.93,937.389 3559.76,935.509 3562.58,933.654 3565.4,931.824 3568.23,930.019 3571.05,928.239 3573.88,926.484 3576.7,924.754 3579.53,923.048 3582.35,921.367 3585.17,919.709 3588,918.077 3590.82,916.468 3593.65,914.883 3596.47,913.322 3599.29,911.784 3602.12,910.27 3604.94,908.778 3607.77,907.31 3610.59,905.864 3613.42,904.441 3616.24,903.04 3619.06,901.662 3621.89,900.305 3624.71,898.97 3627.54,897.656 3630.36,896.363 3633.18,895.091 3636.01,893.84 3638.83,892.609 3641.66,891.398 3644.48,890.207 3647.31,889.036 3650.13,887.884 3652.95,886.751 3655.78,885.638 3658.6,884.542 3661.43,883.466 3664.25,882.407 3667.07,881.366 3669.9,880.343 3672.72,879.337 3675.55,878.349 3678.37,877.377 3681.2,876.422 3684.02,875.483 3686.84,874.561 3689.67,873.654 3692.49,872.763 3695.32,871.887 3698.14,871.027 3700.97,870.182 3703.79,869.351 3706.61,868.535 3709.44,867.733 3712.26,866.945 3715.09,866.171 3717.91,865.41 3720.73,864.663 3723.56,863.929 3726.38,863.208 3729.21,862.5 3732.03,861.804 3734.86,861.12 3737.68,860.449 3740.5,859.79 3743.33,859.142 3746.15,858.506 3748.98,857.881 3751.8,857.267 3754.62,856.664 3757.45,856.072 3760.27,855.491 3763.1,854.919 3765.92,854.359 3768.75,853.808 "/>
</svg>
